<?xml version="1.0" encoding="UTF-8" standalone="no"?>
<!DOCTYPE svg PUBLIC "-//W3C//DTD SVG 1.1//EN"
 "http://www.w3.org/Graphics/SVG/1.1/DTD/svg11.dtd">
<!-- Generated by graphviz version 2.38.0 (20140413.2041)
 -->
<!-- Title: ICON Pages: 1 -->
<svg width="1068pt" height="600pt"
 viewBox="0.00 0.00 1068.00 599.74" xmlns="http://www.w3.org/2000/svg" xmlns:xlink="http://www.w3.org/1999/xlink">
<g id="graph0" class="graph" transform="scale(1 1) rotate(0) translate(4 595.74)">
<title>ICON</title>
<polygon fill="white" stroke="none" points="-4,4 -4,-595.74 1064,-595.74 1064,4 -4,4"/>
<g id="clust1" class="cluster"><title>clusterMain</title>
</g>
<g id="clust20" class="cluster"><title>clusterLegend</title>
<polygon fill="none" stroke="black" points="13,-8 13,-77.7401 1037,-77.7401 1037,-8 13,-8"/>
</g>
<!-- ICON -->
<g id="node1" class="node"><title>ICON</title>
<polygon fill="white" stroke="black" stroke-width="2" points="643.5,-575.74 568.5,-575.74 568.5,-539.74 643.5,-539.74 643.5,-575.74"/>
<text text-anchor="middle" x="606" y="-552.74" font-family="italic" font-size="20.00">ICON</text>
</g>
<!-- STDC++ -->
<g id="node2" class="node"><title>STDC++</title>
<ellipse fill="#79c547" stroke="black" cx="168" cy="-413.74" rx="53.8905" ry="18"/>
<text text-anchor="middle" x="168" y="-410.04" font-family="italic" font-size="14.00">STDC++</text>
</g>
<!-- ICON&#45;&gt;STDC++ -->
<g id="edge1" class="edge"><title>ICON&#45;&gt;STDC++</title>
<path fill="none" stroke="black" d="M568.164,-556.911C467.032,-556.707 193.108,-551.633 119,-503.74 111.638,-498.982 110.912,-495.295 109,-486.74"/>
<path fill="none" stroke="black" d="M109,-484.74C104.659,-465.324 118.671,-448.159 134.125,-435.686"/>
<polygon fill="black" stroke="black" points="136.341,-438.399 142.248,-429.604 132.145,-432.795 136.341,-438.399"/>
</g>
<!-- CUDA -->
<g id="node3" class="node"><title>CUDA</title>
<ellipse fill="#79c547" stroke="black" cx="56" cy="-413.74" rx="40.0939" ry="18"/>
<text text-anchor="middle" x="56" y="-410.04" font-family="italic" font-size="14.00">CUDA</text>
</g>
<!-- ICON&#45;&gt;CUDA -->
<g id="edge2" class="edge"><title>ICON&#45;&gt;CUDA</title>
<path fill="none" stroke="black" d="M568.163,-556.165C445.324,-553.912 63.4893,-543.722 27,-503.74 10.6819,-485.86 23.172,-458.655 36.4702,-439.031"/>
<polygon fill="black" stroke="black" points="39.3407,-441.034 42.3362,-430.871 33.657,-436.948 39.3407,-441.034"/>
</g>
<!-- CUB -->
<g id="node4" class="node"><title>CUB</title>
<polygon fill="#79c547" stroke="black" points="90,-503.74 36,-503.74 36,-467.74 90,-467.74 90,-503.74"/>
<text text-anchor="middle" x="63" y="-482.04" font-family="italic" font-size="14.00">CUB</text>
</g>
<!-- ICON&#45;&gt;CUB -->
<g id="edge3" class="edge"><title>ICON&#45;&gt;CUB</title>
<path fill="none" stroke="black" d="M568.196,-556.434C483.658,-554.955 273.439,-546.847 104,-503.74 102.74,-503.42 101.468,-503.067 100.19,-502.689"/>
<polygon fill="black" stroke="black" points="101.014,-499.273 90.4197,-499.372 98.7635,-505.901 101.014,-499.273"/>
</g>
<!-- MPI -->
<g id="node5" class="node"><title>MPI</title>
<ellipse fill="#79c547" stroke="black" cx="475" cy="-197.74" rx="30.5947" ry="18"/>
<text text-anchor="middle" x="475" y="-194.04" font-family="italic" font-size="14.00">MPI</text>
</g>
<!-- ICON&#45;&gt;MPI -->
<g id="edge4" class="edge"><title>ICON&#45;&gt;MPI</title>
<path fill="none" stroke="black" d="M568.161,-554.867C525.9,-551.009 457.357,-539.278 411,-503.74 396.299,-492.47 399.808,-483.453 390,-467.74 379.817,-451.428 376.212,-448.034 366,-431.74 361.345,-424.313 355.393,-423.485 356,-414.74"/>
</g>
<!-- NetCDF&#45;Fortran -->
<g id="node6" class="node"><title>NetCDF&#45;Fortran</title>
<ellipse fill="#47a1f1" stroke="black" cx="574" cy="-413.74" rx="87.1846" ry="18"/>
<text text-anchor="middle" x="574" y="-410.04" font-family="italic" font-size="14.00">NetCDF&#45;Fortran</text>
</g>
<!-- ICON&#45;&gt;NetCDF&#45;Fortran -->
<g id="edge5" class="edge"><title>ICON&#45;&gt;NetCDF&#45;Fortran</title>
<path fill="none" stroke="black" d="M642.027,-539.555C655.919,-530.905 670.296,-518.977 678,-503.74 685.219,-489.461 686.359,-481.383 678,-467.74 668.218,-451.776 651.951,-440.431 635.153,-432.452"/>
<polygon fill="black" stroke="black" points="636.369,-429.163 625.805,-428.356 633.56,-435.575 636.369,-429.163"/>
</g>
<!-- RTE+RRTMGP -->
<g id="node7" class="node"><title>RTE+RRTMGP</title>
<polygon fill="#79c547" stroke="black" points="381.5,-503.74 256.5,-503.74 256.5,-467.74 381.5,-467.74 381.5,-503.74"/>
<text text-anchor="middle" x="319" y="-482.04" font-family="italic" font-size="14.00">RTE+RRTMGP</text>
</g>
<!-- ICON&#45;&gt;RTE+RRTMGP -->
<g id="edge6" class="edge"><title>ICON&#45;&gt;RTE+RRTMGP</title>
<path fill="none" stroke="black" d="M568.48,-547.589C523.759,-536.681 448.01,-518.206 391.686,-504.468"/>
<polygon fill="black" stroke="black" points="392.306,-501.017 381.762,-502.048 390.647,-507.818 392.306,-501.017"/>
</g>
<!-- ECRAD -->
<g id="node8" class="node"><title>ECRAD</title>
<polygon fill="#79c547" stroke="black" points="669.5,-503.74 598.5,-503.74 598.5,-467.74 669.5,-467.74 669.5,-503.74"/>
<text text-anchor="middle" x="634" y="-482.04" font-family="italic" font-size="14.00">ECRAD</text>
</g>
<!-- ICON&#45;&gt;ECRAD -->
<g id="edge7" class="edge"><title>ICON&#45;&gt;ECRAD</title>
<path fill="none" stroke="black" d="M612.921,-539.437C616.075,-531.553 619.878,-522.044 623.381,-513.286"/>
<polygon fill="black" stroke="black" points="626.694,-514.429 627.158,-503.844 620.195,-511.829 626.694,-514.429"/>
</g>
<!-- RTTOV -->
<g id="node9" class="node"><title>RTTOV</title>
<ellipse fill="#79c547" stroke="black" cx="753" cy="-485.74" rx="44.6926" ry="18"/>
<text text-anchor="middle" x="753" y="-482.04" font-family="italic" font-size="14.00">RTTOV</text>
</g>
<!-- ICON&#45;&gt;RTTOV -->
<g id="edge8" class="edge"><title>ICON&#45;&gt;RTTOV</title>
<path fill="none" stroke="black" d="M641.96,-539.616C664.421,-528.921 693.275,-515.18 715.94,-504.388"/>
<polygon fill="black" stroke="black" points="717.715,-507.419 725.238,-499.96 714.705,-501.099 717.715,-507.419"/>
</g>
<!-- SCT -->
<g id="node10" class="node"><title>SCT</title>
<polygon fill="#79c547" stroke="black" points="539,-359.74 485,-359.74 485,-323.74 539,-323.74 539,-359.74"/>
<text text-anchor="middle" x="512" y="-338.04" font-family="italic" font-size="14.00">SCT</text>
</g>
<!-- ICON&#45;&gt;SCT -->
<g id="edge9" class="edge"><title>ICON&#45;&gt;SCT</title>
<path fill="none" stroke="black" d="M468,-412.74C458.533,-397.519 468.771,-380.492 481.743,-367.042"/>
<polygon fill="black" stroke="black" points="484.323,-369.417 489.123,-359.972 479.481,-364.362 484.323,-369.417"/>
</g>
<!-- YAXT -->
<g id="node11" class="node"><title>YAXT</title>
<polygon fill="#79c547" stroke="black" points="296,-431.74 240,-431.74 240,-395.74 296,-395.74 296,-431.74"/>
<text text-anchor="middle" x="268" y="-410.04" font-family="italic" font-size="14.00">YAXT</text>
</g>
<!-- ICON&#45;&gt;YAXT -->
<g id="edge10" class="edge"><title>ICON&#45;&gt;YAXT</title>
<path fill="none" stroke="black" d="M109,-484.74C98.1272,-436.105 85.3083,-486.355 230.101,-431.832"/>
<polygon fill="black" stroke="black" points="231.784,-434.935 239.868,-428.087 229.277,-428.399 231.784,-434.935"/>
</g>
<!-- CDI* -->
<g id="node12" class="node"><title>CDI*</title>
<polygon fill="#47a1f1" stroke="black" points="429,-431.74 375,-431.74 375,-395.74 429,-395.74 429,-431.74"/>
<text text-anchor="middle" x="402" y="-410.04" font-family="italic" font-size="14.00">CDI*</text>
</g>
<!-- ICON&#45;&gt;CDI* -->
<g id="edge11" class="edge"><title>ICON&#45;&gt;CDI*</title>
<path fill="none" stroke="black" d="M600.916,-539.521C595.328,-521.497 586.19,-494.727 579,-486.74"/>
<path fill="none" stroke="black" d="M579,-484.74C573.135,-478.225 575.853,-473.205 569,-467.74 558.636,-459.475 484.956,-437.892 438.991,-424.96"/>
<polygon fill="black" stroke="black" points="439.651,-421.51 429.077,-422.184 437.763,-428.251 439.651,-421.51"/>
</g>
<!-- CDI&#45;PIO* -->
<g id="node13" class="node"><title>CDI&#45;PIO*</title>
<ellipse fill="#79c547" stroke="black" cx="183" cy="-485.74" rx="55.4913" ry="18"/>
<text text-anchor="middle" x="183" y="-482.04" font-family="italic" font-size="14.00">CDI&#45;PIO*</text>
</g>
<!-- ICON&#45;&gt;CDI&#45;PIO* -->
<g id="edge12" class="edge"><title>ICON&#45;&gt;CDI&#45;PIO*</title>
<path fill="none" stroke="black" d="M568.285,-552.595C502.611,-545.062 363.163,-527.663 247,-503.74 242.387,-502.79 237.611,-501.709 232.843,-500.562"/>
<polygon fill="black" stroke="black" points="233.671,-497.162 223.121,-498.14 231.978,-503.954 233.671,-497.162"/>
</g>
<!-- SERIALBOX -->
<g id="node14" class="node"><title>SERIALBOX</title>
<ellipse fill="#79c547" stroke="black" cx="490" cy="-485.74" rx="69.5877" ry="18"/>
<text text-anchor="middle" x="490" y="-482.04" font-family="italic" font-size="14.00">SERIALBOX</text>
</g>
<!-- ICON&#45;&gt;SERIALBOX -->
<g id="edge13" class="edge"><title>ICON&#45;&gt;SERIALBOX</title>
<path fill="none" stroke="black" d="M577.623,-539.616C561.777,-530.054 541.898,-518.058 525.082,-507.911"/>
<polygon fill="black" stroke="black" points="526.471,-504.66 516.1,-502.49 522.854,-510.654 526.471,-504.66"/>
</g>
<!-- MTIME -->
<g id="node15" class="node"><title>MTIME</title>
<polygon fill="#47a1f1" stroke="black" points="928.5,-431.74 857.5,-431.74 857.5,-395.74 928.5,-395.74 928.5,-431.74"/>
<text text-anchor="middle" x="893" y="-410.04" font-family="italic" font-size="14.00">MTIME</text>
</g>
<!-- ICON&#45;&gt;MTIME -->
<g id="edge14" class="edge"><title>ICON&#45;&gt;MTIME</title>
<path fill="none" stroke="black" d="M643.577,-555.691C715.165,-552.817 866.854,-542.223 899,-503.74 913.204,-486.737 909.658,-460.943 903.766,-441.494"/>
<polygon fill="black" stroke="black" points="907.069,-440.335 900.552,-431.982 900.437,-442.576 907.069,-440.335"/>
</g>
<!-- BLAS -->
<g id="node16" class="node"><title>BLAS</title>
<ellipse fill="#47a1f1" stroke="black" cx="758" cy="-341.74" rx="37.0935" ry="18"/>
<text text-anchor="middle" x="758" y="-338.04" font-family="italic" font-size="14.00">BLAS</text>
</g>
<!-- ICON&#45;&gt;BLAS -->
<g id="edge15" class="edge"><title>ICON&#45;&gt;BLAS</title>
<path fill="none" stroke="black" d="M817,-484.74C829.209,-456.121 823.89,-445.292 818,-414.74"/>
<path fill="none" stroke="black" d="M818,-412.74C814.226,-393.164 799.921,-376.067 786.226,-363.67"/>
<polygon fill="black" stroke="black" points="788.199,-360.753 778.317,-356.931 783.659,-366.081 788.199,-360.753"/>
</g>
<!-- LAPACK -->
<g id="node17" class="node"><title>LAPACK</title>
<ellipse fill="#47a1f1" stroke="black" cx="749" cy="-413.74" rx="50.0912" ry="18"/>
<text text-anchor="middle" x="749" y="-410.04" font-family="italic" font-size="14.00">LAPACK</text>
</g>
<!-- ICON&#45;&gt;LAPACK -->
<g id="edge16" class="edge"><title>ICON&#45;&gt;LAPACK</title>
<path fill="none" stroke="black" d="M643.794,-555.238C687.215,-551.739 758.677,-540.357 807,-503.74 813.987,-498.446 813.56,-494.803 817,-486.74"/>
<path fill="none" stroke="black" d="M817,-484.74C825.803,-464.106 807.309,-446.091 787.4,-433.505"/>
<polygon fill="black" stroke="black" points="788.944,-430.352 778.553,-428.284 785.386,-436.38 788.944,-430.352"/>
</g>
<!-- YAC -->
<g id="node18" class="node"><title>YAC</title>
<polygon fill="#79c547" stroke="black" points="890,-503.74 836,-503.74 836,-467.74 890,-467.74 890,-503.74"/>
<text text-anchor="middle" x="863" y="-482.04" font-family="italic" font-size="14.00">YAC</text>
</g>
<!-- ICON&#45;&gt;YAC -->
<g id="edge17" class="edge"><title>ICON&#45;&gt;YAC</title>
<path fill="none" stroke="black" d="M643.561,-549.342C687.038,-540.362 760.543,-523.891 822,-503.74 823.419,-503.275 824.857,-502.783 826.305,-502.27"/>
<polygon fill="black" stroke="black" points="827.747,-505.468 835.871,-498.667 825.279,-498.917 827.747,-505.468"/>
</g>
<!-- ICON&#45;TIXI -->
<g id="node19" class="node"><title>ICON&#45;TIXI</title>
<polygon fill="#79c547" stroke="black" points="1023.5,-503.74 928.5,-503.74 928.5,-467.74 1023.5,-467.74 1023.5,-503.74"/>
<text text-anchor="middle" x="976" y="-482.04" font-family="italic" font-size="14.00">ICON&#45;TIXI</text>
</g>
<!-- ICON&#45;&gt;ICON&#45;TIXI -->
<g id="edge18" class="edge"><title>ICON&#45;&gt;ICON&#45;TIXI</title>
<path fill="none" stroke="black" d="M643.686,-551.462C701.969,-543.029 817.344,-525.254 914,-503.74 915.464,-503.414 916.945,-503.076 918.437,-502.727"/>
<polygon fill="black" stroke="black" points="919.505,-506.069 928.389,-500.297 917.844,-499.269 919.505,-506.069"/>
</g>
<!-- ECCODES -->
<g id="node20" class="node"><title>ECCODES</title>
<ellipse fill="#79c547" stroke="black" cx="407" cy="-341.74" rx="60.3893" ry="18"/>
<text text-anchor="middle" x="407" y="-338.04" font-family="italic" font-size="14.00">ECCODES</text>
</g>
<!-- ICON&#45;&gt;ECCODES -->
<g id="edge19" class="edge"><title>ICON&#45;&gt;ECCODES</title>
<path fill="none" stroke="black" d="M579,-484.74C573.135,-478.225 575.66,-473.44 569,-467.74 535.956,-439.459 511.044,-460.022 478,-431.74 471.34,-426.04 472.63,-422.184 468,-414.74"/>
<path fill="none" stroke="black" d="M468,-412.74C457.636,-396.077 443.335,-379.433 431.185,-366.557"/>
<polygon fill="black" stroke="black" points="433.414,-363.827 423.952,-359.061 428.377,-368.688 433.414,-363.827"/>
</g>
<!-- HDF5 -->
<g id="node21" class="node"><title>HDF5</title>
<ellipse fill="#79c547" stroke="black" cx="616" cy="-269.74" rx="38.1938" ry="18"/>
<text text-anchor="middle" x="616" y="-266.04" font-family="italic" font-size="14.00">HDF5</text>
</g>
<!-- ICON&#45;&gt;HDF5 -->
<g id="edge20" class="edge"><title>ICON&#45;&gt;HDF5</title>
<path fill="none" stroke="black" d="M818,-412.74C810.42,-373.422 830.584,-353.684 804,-323.74 769.089,-284.416 707.491,-273.285 664.347,-270.621"/>
<polygon fill="black" stroke="black" points="664.508,-267.125 654.349,-270.133 664.167,-274.117 664.508,-267.125"/>
</g>
<!-- ZLIB -->
<g id="node22" class="node"><title>ZLIB</title>
<ellipse fill="#79c547" stroke="black" cx="703" cy="-197.74" rx="34.394" ry="18"/>
<text text-anchor="middle" x="703" y="-194.04" font-family="italic" font-size="14.00">ZLIB</text>
</g>
<!-- ICON&#45;&gt;ZLIB -->
<g id="edge21" class="edge"><title>ICON&#45;&gt;ZLIB</title>
<path fill="none" stroke="black" d="M643.672,-554.774C743.044,-549.215 1006.49,-531.936 1033,-503.74 1082.11,-451.512 1040.36,-414.385 1043,-342.74"/>
</g>
<!-- CUB&#45;&gt;STDC++ -->
<g id="edge22" class="edge"><title>CUB&#45;&gt;STDC++</title>
<path fill="none" stroke="black" d="M88.6859,-467.616C102.998,-458.075 120.944,-446.11 136.145,-435.977"/>
<polygon fill="black" stroke="black" points="138.35,-438.714 144.729,-430.254 134.467,-432.889 138.35,-438.714"/>
</g>
<!-- CUB&#45;&gt;CUDA -->
<g id="edge23" class="edge"><title>CUB&#45;&gt;CUDA</title>
<path fill="none" stroke="black" d="M61.2697,-467.437C60.4983,-459.723 59.5712,-450.453 58.7112,-441.853"/>
<polygon fill="black" stroke="black" points="62.1882,-441.447 57.7104,-431.844 55.2229,-442.143 62.1882,-441.447"/>
</g>
<!-- NetCDF&#45;C -->
<g id="node23" class="node"><title>NetCDF&#45;C</title>
<ellipse fill="#d1e8fc" stroke="black" cx="616" cy="-341.74" rx="59.2899" ry="18"/>
<text text-anchor="middle" x="616" y="-338.04" font-family="italic" font-size="14.00">NetCDF&#45;C</text>
</g>
<!-- NetCDF&#45;Fortran&#45;&gt;NetCDF&#45;C -->
<g id="edge24" class="edge"><title>NetCDF&#45;Fortran&#45;&gt;NetCDF&#45;C</title>
<path fill="none" stroke="black" d="M584.167,-395.795C589.12,-387.541 595.179,-377.441 600.677,-368.278"/>
<polygon fill="black" stroke="black" points="603.783,-369.905 605.927,-359.529 597.78,-366.303 603.783,-369.905"/>
</g>
<!-- ECRAD&#45;&gt;NetCDF&#45;Fortran -->
<g id="edge25" class="edge"><title>ECRAD&#45;&gt;NetCDF&#45;Fortran</title>
<path fill="none" stroke="black" d="M619.169,-467.437C611.975,-459.045 603.203,-448.811 595.31,-439.601"/>
<polygon fill="black" stroke="black" points="597.826,-437.159 588.661,-431.844 592.511,-441.715 597.826,-437.159"/>
</g>
<!-- RTTOV&#45;&gt;NetCDF&#45;Fortran -->
<g id="edge26" class="edge"><title>RTTOV&#45;&gt;NetCDF&#45;Fortran</title>
<path fill="none" stroke="black" d="M721.821,-472.547C694.407,-461.826 654.062,-446.049 622.445,-433.685"/>
<polygon fill="black" stroke="black" points="623.525,-430.349 612.937,-429.967 620.975,-436.869 623.525,-430.349"/>
</g>
<!-- RTTOV&#45;&gt;LAPACK -->
<g id="edge27" class="edge"><title>RTTOV&#45;&gt;LAPACK</title>
<path fill="none" stroke="black" d="M752.011,-467.437C751.57,-459.723 751.041,-450.453 750.549,-441.853"/>
<polygon fill="black" stroke="black" points="754.042,-441.628 749.977,-431.844 747.054,-442.028 754.042,-441.628"/>
</g>
<!-- RTTOV&#45;&gt;HDF5 -->
<g id="edge28" class="edge"><title>RTTOV&#45;&gt;HDF5</title>
<path fill="none" stroke="black" d="M727.955,-470.728C714.175,-461.562 698.242,-448.233 690,-431.74 668.509,-388.737 706.29,-366.334 684,-323.74 676.501,-309.409 663.216,-297.733 650.366,-289.024"/>
<polygon fill="black" stroke="black" points="651.935,-285.875 641.617,-283.473 648.185,-291.786 651.935,-285.875"/>
</g>
<!-- SCT&#45;&gt;MPI -->
<g id="edge29" class="edge"><title>SCT&#45;&gt;MPI</title>
<path fill="none" stroke="black" d="M484.732,-327.138C481.819,-325.904 478.871,-324.743 476,-323.74 402.087,-297.915 299.887,-348.613 308,-270.74"/>
</g>
<!-- SCT&#45;&gt;HDF5 -->
<g id="edge30" class="edge"><title>SCT&#45;&gt;HDF5</title>
<path fill="none" stroke="black" d="M537.441,-323.616C552.22,-313.669 570.912,-301.088 586.355,-290.694"/>
<polygon fill="black" stroke="black" points="588.676,-293.35 595.018,-284.863 584.767,-287.543 588.676,-293.35"/>
</g>
<!-- YAXT&#45;&gt;MPI -->
<g id="edge31" class="edge"><title>YAXT&#45;&gt;MPI</title>
<path fill="none" stroke="black" d="M284.825,-395.559C296.009,-382.245 308.555,-362.748 308,-342.74"/>
<path fill="none" stroke="black" d="M308,-340.74C307.137,-309.641 304.776,-301.684 308,-270.74"/>
<path fill="none" stroke="black" d="M308,-268.74C313.584,-215.14 386.57,-201.936 434.188,-199.062"/>
<polygon fill="black" stroke="black" points="434.401,-202.556 444.223,-198.584 434.068,-195.564 434.401,-202.556"/>
</g>
<!-- CDI*&#45;&gt;ECCODES -->
<g id="edge32" class="edge"><title>CDI*&#45;&gt;ECCODES</title>
<path fill="none" stroke="black" d="M403.236,-395.437C403.787,-387.723 404.449,-378.453 405.063,-369.853"/>
<polygon fill="black" stroke="black" points="408.557,-370.068 405.778,-359.844 401.575,-369.57 408.557,-370.068"/>
</g>
<!-- CDI*&#45;&gt;NetCDF&#45;C -->
<g id="edge33" class="edge"><title>CDI*&#45;&gt;NetCDF&#45;C</title>
<path fill="none" stroke="black" d="M429.205,-401.033C433.781,-399.187 438.504,-397.357 443,-395.74 483.087,-381.326 529.251,-367.311 563.803,-357.316"/>
<polygon fill="black" stroke="black" points="565.035,-360.604 573.679,-354.477 563.102,-353.876 565.035,-360.604"/>
</g>
<!-- AEC / SZIP -->
<g id="node24" class="node"><title>AEC / SZIP</title>
<ellipse fill="#def1d1" stroke="black" cx="587" cy="-197.74" rx="63.8893" ry="18"/>
<text text-anchor="middle" x="587" y="-194.04" font-family="italic" font-size="14.00">AEC / SZIP</text>
</g>
<!-- CDI*&#45;&gt;AEC / SZIP -->
<g id="edge34" class="edge"><title>CDI*&#45;&gt;AEC / SZIP</title>
<path fill="none" stroke="black" d="M374.958,-397.328C361.541,-388.195 346.437,-375.35 338,-359.74 319.074,-324.723 312.538,-307.419 328,-270.74"/>
<path fill="none" stroke="black" d="M328,-268.74C329.996,-263.935 455.444,-231.721 530.996,-212.71"/>
<polygon fill="black" stroke="black" points="532.009,-216.065 540.855,-210.233 530.303,-209.276 532.009,-216.065"/>
</g>
<!-- CDI&#45;PIO*&#45;&gt;MPI -->
<g id="edge35" class="edge"><title>CDI&#45;PIO*&#45;&gt;MPI</title>
<path fill="none" stroke="black" d="M221.973,-472.942C272.686,-457.031 355.007,-429.043 356,-414.74"/>
<path fill="none" stroke="black" d="M356,-412.74C358.613,-375.108 309.047,-380.448 308,-342.74"/>
</g>
<!-- CDI&#45;PIO*&#45;&gt;YAXT -->
<g id="edge36" class="edge"><title>CDI&#45;PIO*&#45;&gt;YAXT</title>
<path fill="none" stroke="black" d="M202.288,-468.856C213.297,-459.789 227.304,-448.254 239.555,-438.165"/>
<polygon fill="black" stroke="black" points="241.809,-440.843 247.303,-431.784 237.359,-435.44 241.809,-440.843"/>
</g>
<!-- CDI&#45;PIO*&#45;&gt;CDI* -->
<g id="edge37" class="edge"><title>CDI&#45;PIO*&#45;&gt;CDI*</title>
<path fill="none" stroke="black" d="M224.395,-473.726C260.723,-463.75 314.815,-448.141 361,-431.74 362.407,-431.241 363.836,-430.719 365.275,-430.182"/>
<polygon fill="black" stroke="black" points="366.754,-433.363 374.806,-426.477 364.217,-426.838 366.754,-433.363"/>
</g>
<!-- SERIALBOX&#45;&gt;STDC++ -->
<g id="edge38" class="edge"><title>SERIALBOX&#45;&gt;STDC++</title>
<path fill="none" stroke="black" d="M435.215,-474.547C382.644,-464.527 301.116,-448.358 231,-431.74 226.666,-430.713 222.178,-429.601 217.685,-428.453"/>
<polygon fill="black" stroke="black" points="218.458,-425.038 207.899,-425.905 216.694,-431.812 218.458,-425.038"/>
</g>
<!-- SERIALBOX&#45;&gt;NetCDF&#45;C -->
<g id="edge39" class="edge"><title>SERIALBOX&#45;&gt;NetCDF&#45;C</title>
<path fill="none" stroke="black" d="M476.809,-467.914C463.616,-448.888 447.362,-417.707 463,-395.74 469.207,-387.021 522.174,-369.92 564.071,-357.494"/>
<polygon fill="black" stroke="black" points="565.298,-360.782 573.904,-354.603 563.323,-354.066 565.298,-360.782"/>
</g>
<!-- LAPACK&#45;&gt;BLAS -->
<g id="edge40" class="edge"><title>LAPACK&#45;&gt;BLAS</title>
<path fill="none" stroke="black" d="M751.225,-395.437C752.217,-387.723 753.408,-378.453 754.514,-369.853"/>
<polygon fill="black" stroke="black" points="757.997,-370.209 755.801,-359.844 751.054,-369.316 757.997,-370.209"/>
</g>
<!-- YAC&#45;&gt;MPI -->
<g id="edge41" class="edge"><title>YAC&#45;&gt;MPI</title>
<path fill="none" stroke="black" d="M838,-412.74C812.929,-380.753 842.637,-355.276 817,-323.74 726.817,-212.807 649.524,-261.264 514,-215.74 511.895,-215.033 509.747,-214.258 507.594,-213.44"/>
<polygon fill="black" stroke="black" points="508.834,-210.166 498.251,-209.661 506.21,-216.655 508.834,-210.166"/>
</g>
<!-- YAC&#45;&gt;MTIME -->
<g id="edge42" class="edge"><title>YAC&#45;&gt;MTIME</title>
<path fill="none" stroke="black" d="M870.416,-467.437C873.794,-459.553 877.87,-450.044 881.623,-441.286"/>
<polygon fill="black" stroke="black" points="884.947,-442.415 885.67,-431.844 878.513,-439.657 884.947,-442.415"/>
</g>
<!-- YAC&#45;&gt;LAPACK -->
<g id="edge43" class="edge"><title>YAC&#45;&gt;LAPACK</title>
<path fill="none" stroke="black" d="M835.984,-468.151C819.724,-458.167 798.913,-445.388 781.724,-434.834"/>
<polygon fill="black" stroke="black" points="783.462,-431.794 773.109,-429.544 779.799,-437.759 783.462,-431.794"/>
</g>
<!-- YAC&#45;&gt;NetCDF&#45;C -->
<g id="edge44" class="edge"><title>YAC&#45;&gt;NetCDF&#45;C</title>
<path fill="none" stroke="black" d="M858.259,-467.67C853.055,-449.777 844.568,-423.119 838,-414.74"/>
<path fill="none" stroke="black" d="M838,-412.74C831.784,-404.81 831.594,-401 823,-395.74 798.328,-380.64 726.899,-364.269 674.834,-353.779"/>
<polygon fill="black" stroke="black" points="675.518,-350.347 665.027,-351.826 674.151,-357.212 675.518,-350.347"/>
</g>
<!-- XML2 -->
<g id="node25" class="node"><title>XML2</title>
<ellipse fill="#d1e8fc" stroke="black" cx="985" cy="-413.74" rx="38.9931" ry="18"/>
<text text-anchor="middle" x="985" y="-410.04" font-family="italic" font-size="14.00">XML2</text>
</g>
<!-- YAC&#45;&gt;XML2 -->
<g id="edge45" class="edge"><title>YAC&#45;&gt;XML2</title>
<path fill="none" stroke="black" d="M890.076,-469.205C908.499,-458.634 932.975,-444.59 952.459,-433.411"/>
<polygon fill="black" stroke="black" points="954.364,-436.353 961.296,-428.341 950.881,-430.282 954.364,-436.353"/>
</g>
<!-- ICON&#45;TIXI&#45;&gt;XML2 -->
<g id="edge46" class="edge"><title>ICON&#45;TIXI&#45;&gt;XML2</title>
<path fill="none" stroke="black" d="M978.225,-467.437C979.217,-459.723 980.408,-450.453 981.514,-441.853"/>
<polygon fill="black" stroke="black" points="984.997,-442.209 982.801,-431.844 978.054,-441.316 984.997,-442.209"/>
</g>
<!-- ECCODES&#45;&gt;AEC / SZIP -->
<g id="edge47" class="edge"><title>ECCODES&#45;&gt;AEC / SZIP</title>
<path fill="none" stroke="black" d="M371.058,-327.22C345.515,-315.222 317.465,-295.731 328,-270.74"/>
</g>
<!-- HDF5&#45;&gt;MPI -->
<g id="edge48" class="edge"><title>HDF5&#45;&gt;MPI</title>
<path fill="none" stroke="black" d="M590.466,-256.064C566.962,-244.395 532.015,-227.045 506.727,-214.491"/>
<polygon fill="black" stroke="black" points="508.066,-211.248 497.553,-209.936 504.953,-217.518 508.066,-211.248"/>
</g>
<!-- HDF5&#45;&gt;ZLIB -->
<g id="edge49" class="edge"><title>HDF5&#45;&gt;ZLIB</title>
<path fill="none" stroke="black" d="M634.45,-253.895C646.76,-243.991 663.128,-230.821 676.783,-219.834"/>
<polygon fill="black" stroke="black" points="679.277,-222.32 684.874,-213.324 674.889,-216.866 679.277,-222.32"/>
</g>
<!-- HDF5&#45;&gt;AEC / SZIP -->
<g id="edge50" class="edge"><title>HDF5&#45;&gt;AEC / SZIP</title>
<path fill="none" stroke="black" d="M608.98,-251.795C605.716,-243.916 601.755,-234.357 598.1,-225.534"/>
<polygon fill="black" stroke="black" points="601.218,-223.914 594.157,-216.015 594.751,-226.594 601.218,-223.914"/>
</g>
<!-- NetCDF&#45;C&#45;&gt;HDF5 -->
<g id="edge51" class="edge"><title>NetCDF&#45;C&#45;&gt;HDF5</title>
<path fill="none" stroke="black" d="M616,-323.437C616,-315.723 616,-306.453 616,-297.853"/>
<polygon fill="black" stroke="black" points="619.5,-297.844 616,-287.844 612.5,-297.844 619.5,-297.844"/>
</g>
<!-- NetCDF&#45;C&#45;&gt;ZLIB -->
<g id="edge52" class="edge"><title>NetCDF&#45;C&#45;&gt;ZLIB</title>
<path fill="none" stroke="black" d="M633.09,-324.155C642.703,-314.21 654.453,-300.96 663,-287.74 675.805,-267.935 686.512,-243.35 693.616,-225.04"/>
<polygon fill="black" stroke="black" points="696.929,-226.176 697.183,-215.585 690.379,-223.706 696.929,-226.176"/>
</g>
<!-- XML2&#45;&gt;ZLIB -->
<g id="edge53" class="edge"><title>XML2&#45;&gt;ZLIB</title>
<path fill="none" stroke="black" d="M1004.89,-398.12C1019.86,-385.484 1038.56,-365.671 1043,-342.74"/>
<path fill="none" stroke="black" d="M1043,-340.74C1067.37,-215.011 845.677,-199.087 747.885,-198.119"/>
<polygon fill="black" stroke="black" points="747.723,-194.618 737.706,-198.068 747.688,-201.618 747.723,-194.618"/>
</g>
<!-- bottomNode -->
<g id="node26" class="node"><title>bottomNode</title>
<polygon fill="white" stroke="none" points="1026.5,-143.74 41.5,-143.74 41.5,-105.74 1026.5,-105.74 1026.5,-143.74"/>
<text text-anchor="start" x="49.5" y="-128.54" font-family="italic" font-size="14.00">* CDI and CDI&#45;PIO are technically one package. Unfortunately, the bundled version of CDI cannot currently provide CDI&#45;PIO features.</text>
<text text-anchor="middle" x="534" y="-113.54" font-family="italic" font-size="14.00">Therefore, an external version of CDI (with CDI&#45;PIO features enabled) needs to be provided if those features are required.</text>
</g>
<!-- optionalIcon -->
<g id="node30" class="node"><title>optionalIcon</title>
<polygon fill="#79c547" stroke="none" points="642.5,-61.8701 463.5,-61.8701 463.5,-23.8701 642.5,-23.8701 642.5,-61.8701"/>
<text text-anchor="middle" x="553" y="-46.6701" font-family="italic" font-size="14.00">Immediate optional</text>
<text text-anchor="middle" x="553" y="-31.6701" font-family="italic" font-size="14.00">dependencies of ICON</text>
</g>
<!-- bottomNode&#45;&gt;optionalIcon -->
<!-- external -->
<g id="node27" class="node"><title>external</title>
<ellipse fill="white" stroke="black" cx="80" cy="-42.8701" rx="59.2941" ry="26.7407"/>
<text text-anchor="middle" x="80" y="-46.6701" font-family="italic" font-size="14.00">External</text>
<text text-anchor="middle" x="80" y="-31.6701" font-family="italic" font-size="14.00">packages</text>
</g>
<!-- bundled -->
<g id="node28" class="node"><title>bundled</title>
<polygon fill="white" stroke="black" points="248.5,-69.3701 157.5,-69.3701 157.5,-16.3701 248.5,-16.3701 248.5,-69.3701"/>
<text text-anchor="middle" x="203" y="-54.1701" font-family="italic" font-size="14.00">Optionally</text>
<text text-anchor="middle" x="203" y="-39.1701" font-family="italic" font-size="14.00">bundled</text>
<text text-anchor="middle" x="203" y="-24.1701" font-family="italic" font-size="14.00">packages</text>
</g>
<!-- external&#45;&gt;bundled -->
<!-- mandatoryIcon -->
<g id="node29" class="node"><title>mandatoryIcon</title>
<polygon fill="#47a1f1" stroke="none" points="445.5,-61.8701 266.5,-61.8701 266.5,-23.8701 445.5,-23.8701 445.5,-61.8701"/>
<text text-anchor="middle" x="356" y="-46.6701" font-family="italic" font-size="14.00">Immediate mandatory</text>
<text text-anchor="middle" x="356" y="-31.6701" font-family="italic" font-size="14.00">dependencies of ICON</text>
</g>
<!-- bundled&#45;&gt;mandatoryIcon -->
<!-- mandatoryIcon&#45;&gt;optionalIcon -->
<!-- mandatoryBundled -->
<g id="node31" class="node"><title>mandatoryBundled</title>
<polygon fill="#d1e8fc" stroke="none" points="837,-69.3701 661,-69.3701 661,-16.3701 837,-16.3701 837,-69.3701"/>
<text text-anchor="middle" x="749" y="-54.1701" font-family="italic" font-size="14.00">Immediate mandatory</text>
<text text-anchor="middle" x="749" y="-39.1701" font-family="italic" font-size="14.00">dependencies of</text>
<text text-anchor="middle" x="749" y="-24.1701" font-family="italic" font-size="14.00">the bundled packages</text>
</g>
<!-- optionalIcon&#45;&gt;mandatoryBundled -->
<!-- optionalBundled -->
<g id="node32" class="node"><title>optionalBundled</title>
<polygon fill="#def1d1" stroke="none" points="1029,-69.3701 855,-69.3701 855,-16.3701 1029,-16.3701 1029,-69.3701"/>
<text text-anchor="middle" x="942" y="-54.1701" font-family="italic" font-size="14.00">Immediate optional</text>
<text text-anchor="middle" x="942" y="-39.1701" font-family="italic" font-size="14.00">dependencies of</text>
<text text-anchor="middle" x="942" y="-24.1701" font-family="italic" font-size="14.00">the bundled packages</text>
</g>
<!-- mandatoryBundled&#45;&gt;optionalBundled -->
</g>
</svg>
