<?xml version="1.0" encoding="UTF-8" standalone="no"?>
<!DOCTYPE svg PUBLIC "-//W3C//DTD SVG 1.1//EN"
 "http://www.w3.org/Graphics/SVG/1.1/DTD/svg11.dtd">
<!-- Generated by graphviz version 2.38.0 (20140413.2041)
 -->
<!-- Title: ICON Pages: 1 -->
<svg width="1058pt" height="600pt"
 viewBox="0.00 0.00 1058.00 599.74" xmlns="http://www.w3.org/2000/svg" xmlns:xlink="http://www.w3.org/1999/xlink">
<g id="graph0" class="graph" transform="scale(1 1) rotate(0) translate(4 595.74)">
<title>ICON</title>
<polygon fill="white" stroke="none" points="-4,4 -4,-595.74 1054,-595.74 1054,4 -4,4"/>
<g id="clust1" class="cluster"><title>clusterMain</title>
</g>
<g id="clust20" class="cluster"><title>clusterLegend</title>
<polygon fill="none" stroke="black" points="8,-8 8,-77.7401 1032,-77.7401 1032,-8 8,-8"/>
</g>
<!-- ICON -->
<g id="node1" class="node"><title>ICON</title>
<polygon fill="white" stroke="black" stroke-width="2" points="595.5,-575.74 520.5,-575.74 520.5,-539.74 595.5,-539.74 595.5,-575.74"/>
<text text-anchor="middle" x="558" y="-552.74" font-family="italic" font-size="20.00">ICON</text>
</g>
<!-- STDC++ -->
<g id="node2" class="node"><title>STDC++</title>
<ellipse fill="#79c547" stroke="black" cx="179" cy="-413.74" rx="53.8905" ry="18"/>
<text text-anchor="middle" x="179" y="-410.04" font-family="italic" font-size="14.00">STDC++</text>
</g>
<!-- ICON&#45;&gt;STDC++ -->
<g id="edge1" class="edge"><title>ICON&#45;&gt;STDC++</title>
<path fill="none" stroke="black" d="M520.437,-556.264C428.29,-554.449 193.912,-545.717 130,-503.74 122.673,-498.928 121.661,-495.347 120,-486.74"/>
<path fill="none" stroke="black" d="M120,-484.74C116.257,-465.338 130.065,-448.271 145.26,-435.847"/>
<polygon fill="black" stroke="black" points="147.397,-438.619 153.247,-429.786 143.165,-433.043 147.397,-438.619"/>
</g>
<!-- CUDA -->
<g id="node3" class="node"><title>CUDA</title>
<ellipse fill="#79c547" stroke="black" cx="67" cy="-413.74" rx="40.0939" ry="18"/>
<text text-anchor="middle" x="67" y="-410.04" font-family="italic" font-size="14.00">CUDA</text>
</g>
<!-- ICON&#45;&gt;CUDA -->
<g id="edge2" class="edge"><title>ICON&#45;&gt;CUDA</title>
<path fill="none" stroke="black" d="M520.457,-555.756C406.485,-552.386 70.2761,-539.473 38,-503.74 21.7741,-485.776 34.2491,-458.585 47.5185,-438.987"/>
<polygon fill="black" stroke="black" points="50.3795,-441.003 53.3712,-430.839 44.6943,-436.919 50.3795,-441.003"/>
</g>
<!-- CUB -->
<g id="node4" class="node"><title>CUB</title>
<polygon fill="#79c547" stroke="black" points="101,-503.74 47,-503.74 47,-467.74 101,-467.74 101,-503.74"/>
<text text-anchor="middle" x="74" y="-482.04" font-family="italic" font-size="14.00">CUB</text>
</g>
<!-- ICON&#45;&gt;CUB -->
<g id="edge3" class="edge"><title>ICON&#45;&gt;CUB</title>
<path fill="none" stroke="black" d="M520.31,-555.696C443.059,-552.805 261.681,-542.143 115,-503.74 113.742,-503.411 112.472,-503.051 111.196,-502.666"/>
<polygon fill="black" stroke="black" points="112.028,-499.251 101.434,-499.317 109.757,-505.873 112.028,-499.251"/>
</g>
<!-- MPI -->
<g id="node5" class="node"><title>MPI</title>
<ellipse fill="#79c547" stroke="black" cx="481" cy="-197.74" rx="30.5947" ry="18"/>
<text text-anchor="middle" x="481" y="-194.04" font-family="italic" font-size="14.00">MPI</text>
</g>
<!-- ICON&#45;&gt;MPI -->
<g id="edge4" class="edge"><title>ICON&#45;&gt;MPI</title>
<path fill="none" stroke="black" d="M520.455,-549.231C490.995,-541.78 450.363,-527.889 422,-503.74 415.326,-498.057 417.592,-493.491 412,-486.74"/>
<path fill="none" stroke="black" d="M412,-484.74C406.259,-477.81 407.036,-474.415 401,-467.74 383.821,-448.743 372.531,-451.304 356,-431.74 344.187,-417.76 345.959,-411.097 336,-395.74 320.37,-371.637 297.608,-371.434 299,-342.74"/>
</g>
<!-- NetCDF&#45;Fortran -->
<g id="node6" class="node"><title>NetCDF&#45;Fortran</title>
<ellipse fill="#47a1f1" stroke="black" cx="927" cy="-413.74" rx="87.1846" ry="18"/>
<text text-anchor="middle" x="927" y="-410.04" font-family="italic" font-size="14.00">NetCDF&#45;Fortran</text>
</g>
<!-- ICON&#45;&gt;NetCDF&#45;Fortran -->
<g id="edge5" class="edge"><title>ICON&#45;&gt;NetCDF&#45;Fortran</title>
<path fill="none" stroke="black" d="M595.699,-554.755C705.135,-548.524 1016.18,-527.312 1033,-486.74"/>
<path fill="none" stroke="black" d="M1033,-484.74C1043.43,-459.572 1019.11,-442.394 991.15,-431.355"/>
<polygon fill="black" stroke="black" points="992.167,-428 981.573,-427.844 989.758,-434.572 992.167,-428"/>
</g>
<!-- RTE+RRTMGP -->
<g id="node7" class="node"><title>RTE+RRTMGP</title>
<polygon fill="#79c547" stroke="black" points="392.5,-503.74 267.5,-503.74 267.5,-467.74 392.5,-467.74 392.5,-503.74"/>
<text text-anchor="middle" x="330" y="-482.04" font-family="italic" font-size="14.00">RTE+RRTMGP</text>
</g>
<!-- ICON&#45;&gt;RTE+RRTMGP -->
<g id="edge6" class="edge"><title>ICON&#45;&gt;RTE+RRTMGP</title>
<path fill="none" stroke="black" d="M520.35,-545.181C486.465,-534.778 435.923,-519.26 395.434,-506.829"/>
<polygon fill="black" stroke="black" points="396.225,-503.411 385.638,-503.822 394.171,-510.103 396.225,-503.411"/>
</g>
<!-- ECRAD -->
<g id="node8" class="node"><title>ECRAD</title>
<polygon fill="#79c547" stroke="black" points="993.5,-503.74 922.5,-503.74 922.5,-467.74 993.5,-467.74 993.5,-503.74"/>
<text text-anchor="middle" x="958" y="-482.04" font-family="italic" font-size="14.00">ECRAD</text>
</g>
<!-- ICON&#45;&gt;ECRAD -->
<g id="edge7" class="edge"><title>ICON&#45;&gt;ECRAD</title>
<path fill="none" stroke="black" d="M595.707,-553.881C659.569,-548.447 792.992,-534.541 912.517,-503.847"/>
<polygon fill="black" stroke="black" points="913.406,-507.232 922.195,-501.316 911.635,-500.46 913.406,-507.232"/>
</g>
<!-- RTTOV -->
<g id="node9" class="node"><title>RTTOV</title>
<ellipse fill="#79c547" stroke="black" cx="860" cy="-485.74" rx="44.6926" ry="18"/>
<text text-anchor="middle" x="860" y="-482.04" font-family="italic" font-size="14.00">RTTOV</text>
</g>
<!-- ICON&#45;&gt;RTTOV -->
<g id="edge8" class="edge"><title>ICON&#45;&gt;RTTOV</title>
<path fill="none" stroke="black" d="M595.645,-549.33C643.56,-539.715 728.788,-521.997 801,-503.74 805.663,-502.561 810.516,-501.269 815.346,-499.942"/>
<polygon fill="black" stroke="black" points="816.478,-503.259 825.161,-497.19 814.588,-496.519 816.478,-503.259"/>
</g>
<!-- SCT -->
<g id="node10" class="node"><title>SCT</title>
<polygon fill="#79c547" stroke="black" points="530,-359.74 476,-359.74 476,-323.74 530,-323.74 530,-359.74"/>
<text text-anchor="middle" x="503" y="-338.04" font-family="italic" font-size="14.00">SCT</text>
</g>
<!-- ICON&#45;&gt;SCT -->
<g id="edge9" class="edge"><title>ICON&#45;&gt;SCT</title>
<path fill="none" stroke="black" d="M438,-412.74C442.868,-394.382 456.389,-378.44 469.847,-366.427"/>
<polygon fill="black" stroke="black" points="472.301,-368.936 477.697,-359.819 467.793,-363.581 472.301,-368.936"/>
</g>
<!-- YAXT -->
<g id="node11" class="node"><title>YAXT</title>
<polygon fill="#79c547" stroke="black" points="327,-431.74 271,-431.74 271,-395.74 327,-395.74 327,-431.74"/>
<text text-anchor="middle" x="299" y="-410.04" font-family="italic" font-size="14.00">YAXT</text>
</g>
<!-- ICON&#45;&gt;YAXT -->
<g id="edge10" class="edge"><title>ICON&#45;&gt;YAXT</title>
<path fill="none" stroke="black" d="M120,-484.74C118.339,-476.133 123.137,-473.194 130,-467.74 132.66,-465.626 212.269,-441.148 261.261,-426.208"/>
<polygon fill="black" stroke="black" points="262.37,-429.529 270.916,-423.266 260.33,-422.833 262.37,-429.529"/>
</g>
<!-- CDI* -->
<g id="node12" class="node"><title>CDI*</title>
<polygon fill="#47a1f1" stroke="black" points="419,-431.74 365,-431.74 365,-395.74 419,-395.74 419,-431.74"/>
<text text-anchor="middle" x="392" y="-410.04" font-family="italic" font-size="14.00">CDI*</text>
</g>
<!-- ICON&#45;&gt;CDI* -->
<g id="edge11" class="edge"><title>ICON&#45;&gt;CDI*</title>
<path fill="none" stroke="black" d="M412,-484.74C402.041,-472.718 397.037,-456.001 394.524,-441.919"/>
<polygon fill="black" stroke="black" points="397.953,-441.176 393.047,-431.785 391.026,-442.185 397.953,-441.176"/>
</g>
<!-- CDI&#45;PIO* -->
<g id="node13" class="node"><title>CDI&#45;PIO*</title>
<ellipse fill="#79c547" stroke="black" cx="194" cy="-485.74" rx="55.4913" ry="18"/>
<text text-anchor="middle" x="194" y="-482.04" font-family="italic" font-size="14.00">CDI&#45;PIO*</text>
</g>
<!-- ICON&#45;&gt;CDI&#45;PIO* -->
<g id="edge12" class="edge"><title>ICON&#45;&gt;CDI&#45;PIO*</title>
<path fill="none" stroke="black" d="M520.383,-551.144C463.357,-542.424 351.739,-524.431 258,-503.74 253.587,-502.766 249.02,-501.69 244.45,-500.567"/>
<polygon fill="black" stroke="black" points="245.054,-497.109 234.501,-498.053 243.339,-503.896 245.054,-497.109"/>
</g>
<!-- SERIALBOX -->
<g id="node14" class="node"><title>SERIALBOX</title>
<ellipse fill="#79c547" stroke="black" cx="501" cy="-485.74" rx="69.5877" ry="18"/>
<text text-anchor="middle" x="501" y="-482.04" font-family="italic" font-size="14.00">SERIALBOX</text>
</g>
<!-- ICON&#45;&gt;SERIALBOX -->
<g id="edge13" class="edge"><title>ICON&#45;&gt;SERIALBOX</title>
<path fill="none" stroke="black" d="M543.91,-539.437C537.077,-531.045 528.743,-520.811 521.244,-511.601"/>
<polygon fill="black" stroke="black" points="523.956,-509.389 514.928,-503.844 518.528,-513.809 523.956,-509.389"/>
</g>
<!-- MTIME -->
<g id="node15" class="node"><title>MTIME</title>
<polygon fill="#47a1f1" stroke="black" points="568.5,-431.74 497.5,-431.74 497.5,-395.74 568.5,-395.74 568.5,-431.74"/>
<text text-anchor="middle" x="533" y="-410.04" font-family="italic" font-size="14.00">MTIME</text>
</g>
<!-- ICON&#45;&gt;MTIME -->
<g id="edge14" class="edge"><title>ICON&#45;&gt;MTIME</title>
<path fill="none" stroke="black" d="M595.928,-545.77C616.404,-537.696 639.904,-524.446 652,-503.74 660.071,-489.925 660.713,-481.159 652,-467.74 649.737,-464.255 610.84,-447.299 578.125,-433.49"/>
<polygon fill="black" stroke="black" points="579.233,-430.159 568.659,-429.509 576.52,-436.612 579.233,-430.159"/>
</g>
<!-- BLAS -->
<g id="node16" class="node"><title>BLAS</title>
<ellipse fill="#47a1f1" stroke="black" cx="765" cy="-341.74" rx="37.0935" ry="18"/>
<text text-anchor="middle" x="765" y="-338.04" font-family="italic" font-size="14.00">BLAS</text>
</g>
<!-- ICON&#45;&gt;BLAS -->
<g id="edge15" class="edge"><title>ICON&#45;&gt;BLAS</title>
<path fill="none" stroke="black" d="M595.636,-556.36C643.716,-554.118 727.567,-544.132 785,-503.74 792.361,-498.563 792.794,-495.149 796,-486.74"/>
<path fill="none" stroke="black" d="M796,-484.74C799.206,-476.331 791.971,-473.432 785,-467.74 750.99,-439.97 717.753,-468.006 693,-431.74 683.98,-418.525 685.781,-410.019 693,-395.74 700.756,-380.401 715.275,-368.414 729.255,-359.751"/>
<polygon fill="black" stroke="black" points="731.377,-362.567 738.287,-354.536 727.877,-356.505 731.377,-362.567"/>
</g>
<!-- LAPACK -->
<g id="node17" class="node"><title>LAPACK</title>
<ellipse fill="#47a1f1" stroke="black" cx="752" cy="-413.74" rx="50.0912" ry="18"/>
<text text-anchor="middle" x="752" y="-410.04" font-family="italic" font-size="14.00">LAPACK</text>
</g>
<!-- ICON&#45;&gt;LAPACK -->
<g id="edge16" class="edge"><title>ICON&#45;&gt;LAPACK</title>
<path fill="none" stroke="black" d="M796,-484.74C802.412,-467.922 791.986,-450.786 779.68,-437.677"/>
<polygon fill="black" stroke="black" points="781.916,-434.968 772.329,-430.458 777.011,-439.962 781.916,-434.968"/>
</g>
<!-- YAC -->
<g id="node18" class="node"><title>YAC</title>
<polygon fill="#79c547" stroke="black" points="643,-503.74 589,-503.74 589,-467.74 643,-467.74 643,-503.74"/>
<text text-anchor="middle" x="616" y="-482.04" font-family="italic" font-size="14.00">YAC</text>
</g>
<!-- ICON&#45;&gt;YAC -->
<g id="edge17" class="edge"><title>ICON&#45;&gt;YAC</title>
<path fill="none" stroke="black" d="M572.337,-539.437C579.291,-531.045 587.77,-520.811 595.401,-511.601"/>
<polygon fill="black" stroke="black" points="598.143,-513.778 601.828,-503.844 592.753,-509.312 598.143,-513.778"/>
</g>
<!-- ICON&#45;TIXI -->
<g id="node19" class="node"><title>ICON&#45;TIXI</title>
<polygon fill="#79c547" stroke="black" points="776.5,-503.74 681.5,-503.74 681.5,-467.74 776.5,-467.74 776.5,-503.74"/>
<text text-anchor="middle" x="729" y="-482.04" font-family="italic" font-size="14.00">ICON&#45;TIXI</text>
</g>
<!-- ICON&#45;&gt;ICON&#45;TIXI -->
<g id="edge18" class="edge"><title>ICON&#45;&gt;ICON&#45;TIXI</title>
<path fill="none" stroke="black" d="M595.527,-541.378C619.693,-531.485 651.421,-518.498 677.878,-507.667"/>
<polygon fill="black" stroke="black" points="679.435,-510.812 687.363,-503.784 676.783,-504.334 679.435,-510.812"/>
</g>
<!-- ECCODES -->
<g id="node20" class="node"><title>ECCODES</title>
<ellipse fill="#79c547" stroke="black" cx="398" cy="-341.74" rx="60.3893" ry="18"/>
<text text-anchor="middle" x="398" y="-338.04" font-family="italic" font-size="14.00">ECCODES</text>
</g>
<!-- ICON&#45;&gt;ECCODES -->
<g id="edge19" class="edge"><title>ICON&#45;&gt;ECCODES</title>
<path fill="none" stroke="black" d="M412,-484.74C390.829,-459.182 429.493,-446.819 438,-414.74"/>
<path fill="none" stroke="black" d="M438,-412.74C442.397,-396.158 433.416,-379.409 422.858,-366.454"/>
<polygon fill="black" stroke="black" points="425.433,-364.083 416.186,-358.913 420.191,-368.721 425.433,-364.083"/>
</g>
<!-- HDF5 -->
<g id="node21" class="node"><title>HDF5</title>
<ellipse fill="#79c547" stroke="black" cx="617" cy="-269.74" rx="38.1938" ry="18"/>
<text text-anchor="middle" x="617" y="-266.04" font-family="italic" font-size="14.00">HDF5</text>
</g>
<!-- ICON&#45;&gt;HDF5 -->
<g id="edge20" class="edge"><title>ICON&#45;&gt;HDF5</title>
<path fill="none" stroke="black" d="M796,-484.74C808.137,-454.015 822.6,-447.737 821,-414.74"/>
<path fill="none" stroke="black" d="M821,-412.74C819.072,-372.982 836.885,-353.978 811,-323.74 801.161,-312.247 715.712,-292.021 661.549,-280.156"/>
<polygon fill="black" stroke="black" points="662.011,-276.675 651.496,-277.971 660.524,-283.515 662.011,-276.675"/>
</g>
<!-- ZLIB -->
<g id="node22" class="node"><title>ZLIB</title>
<ellipse fill="#79c547" stroke="black" cx="709" cy="-197.74" rx="34.394" ry="18"/>
<text text-anchor="middle" x="709" y="-194.04" font-family="italic" font-size="14.00">ZLIB</text>
</g>
<!-- ICON&#45;&gt;ZLIB -->
<g id="edge21" class="edge"><title>ICON&#45;&gt;ZLIB</title>
<path fill="none" stroke="black" d="M1033,-484.74C1123.74,-265.813 709.358,-274.287 709,-270.74"/>
</g>
<!-- CUB&#45;&gt;STDC++ -->
<g id="edge22" class="edge"><title>CUB&#45;&gt;STDC++</title>
<path fill="none" stroke="black" d="M99.6859,-467.616C113.998,-458.075 131.944,-446.11 147.145,-435.977"/>
<polygon fill="black" stroke="black" points="149.35,-438.714 155.729,-430.254 145.467,-432.889 149.35,-438.714"/>
</g>
<!-- CUB&#45;&gt;CUDA -->
<g id="edge23" class="edge"><title>CUB&#45;&gt;CUDA</title>
<path fill="none" stroke="black" d="M72.2697,-467.437C71.4983,-459.723 70.5712,-450.453 69.7112,-441.853"/>
<polygon fill="black" stroke="black" points="73.1882,-441.447 68.7104,-431.844 66.2229,-442.143 73.1882,-441.447"/>
</g>
<!-- NetCDF&#45;C -->
<g id="node23" class="node"><title>NetCDF&#45;C</title>
<ellipse fill="#d1e8fc" stroke="black" cx="627" cy="-341.74" rx="59.2899" ry="18"/>
<text text-anchor="middle" x="627" y="-338.04" font-family="italic" font-size="14.00">NetCDF&#45;C</text>
</g>
<!-- NetCDF&#45;Fortran&#45;&gt;NetCDF&#45;C -->
<g id="edge24" class="edge"><title>NetCDF&#45;Fortran&#45;&gt;NetCDF&#45;C</title>
<path fill="none" stroke="black" d="M871.626,-399.819C817.866,-387.276 736.698,-368.336 682.795,-355.759"/>
<polygon fill="black" stroke="black" points="683.262,-352.274 672.728,-353.41 681.671,-359.091 683.262,-352.274"/>
</g>
<!-- ECRAD&#45;&gt;NetCDF&#45;Fortran -->
<g id="edge25" class="edge"><title>ECRAD&#45;&gt;NetCDF&#45;Fortran</title>
<path fill="none" stroke="black" d="M950.337,-467.437C946.808,-459.469 942.544,-449.84 938.631,-441.004"/>
<polygon fill="black" stroke="black" points="941.824,-439.571 934.575,-431.844 935.424,-442.405 941.824,-439.571"/>
</g>
<!-- RTTOV&#45;&gt;NetCDF&#45;Fortran -->
<g id="edge26" class="edge"><title>RTTOV&#45;&gt;NetCDF&#45;Fortran</title>
<path fill="none" stroke="black" d="M875.54,-468.505C883.836,-459.836 894.22,-448.988 903.483,-439.31"/>
<polygon fill="black" stroke="black" points="906.224,-441.508 910.61,-431.864 901.167,-436.668 906.224,-441.508"/>
</g>
<!-- RTTOV&#45;&gt;LAPACK -->
<g id="edge27" class="edge"><title>RTTOV&#45;&gt;LAPACK</title>
<path fill="none" stroke="black" d="M837.36,-470.066C821.874,-460.029 801.123,-446.579 783.959,-435.454"/>
<polygon fill="black" stroke="black" points="785.652,-432.381 775.356,-429.879 781.844,-438.255 785.652,-432.381"/>
</g>
<!-- RTTOV&#45;&gt;HDF5 -->
<g id="edge28" class="edge"><title>RTTOV&#45;&gt;HDF5</title>
<path fill="none" stroke="black" d="M845.349,-468.585C834.703,-455.215 821.991,-435.166 821,-414.74"/>
</g>
<!-- SCT&#45;&gt;MPI -->
<g id="edge29" class="edge"><title>SCT&#45;&gt;MPI</title>
<path fill="none" stroke="black" d="M524.673,-323.716C538.721,-310.482 553.616,-291.016 549,-270.74"/>
<path fill="none" stroke="black" d="M549,-268.74C544.068,-247.075 526.345,-229.238 510.229,-216.991"/>
<polygon fill="black" stroke="black" points="512.191,-214.091 502.025,-211.106 508.111,-219.779 512.191,-214.091"/>
</g>
<!-- SCT&#45;&gt;HDF5 -->
<g id="edge30" class="edge"><title>SCT&#45;&gt;HDF5</title>
<path fill="none" stroke="black" d="M530.016,-324.151C546.725,-313.891 568.239,-300.681 585.69,-289.966"/>
<polygon fill="black" stroke="black" points="587.708,-292.834 594.399,-284.618 584.045,-286.868 587.708,-292.834"/>
</g>
<!-- YAXT&#45;&gt;MPI -->
<g id="edge31" class="edge"><title>YAXT&#45;&gt;MPI</title>
<path fill="none" stroke="black" d="M299,-395.48C299,-381.312 299,-360.726 299,-342.74"/>
</g>
<!-- CDI*&#45;&gt;ECCODES -->
<g id="edge32" class="edge"><title>CDI*&#45;&gt;ECCODES</title>
<path fill="none" stroke="black" d="M393.483,-395.437C394.144,-387.723 394.939,-378.453 395.676,-369.853"/>
<polygon fill="black" stroke="black" points="399.167,-370.107 396.534,-359.844 392.193,-369.509 399.167,-370.107"/>
</g>
<!-- CDI*&#45;&gt;NetCDF&#45;C -->
<g id="edge33" class="edge"><title>CDI*&#45;&gt;NetCDF&#45;C</title>
<path fill="none" stroke="black" d="M419.163,-400.915C423.745,-399.083 428.48,-397.288 433,-395.74 479.189,-379.926 532.798,-365.575 571.942,-355.807"/>
<polygon fill="black" stroke="black" points="572.955,-359.163 581.821,-353.363 571.273,-352.368 572.955,-359.163"/>
</g>
<!-- AEC / SZIP -->
<g id="node24" class="node"><title>AEC / SZIP</title>
<ellipse fill="#def1d1" stroke="black" cx="593" cy="-197.74" rx="63.8893" ry="18"/>
<text text-anchor="middle" x="593" y="-194.04" font-family="italic" font-size="14.00">AEC / SZIP</text>
</g>
<!-- CDI*&#45;&gt;AEC / SZIP -->
<g id="edge34" class="edge"><title>CDI*&#45;&gt;AEC / SZIP</title>
<path fill="none" stroke="black" d="M364.73,-396.788C351.685,-387.661 337.164,-374.986 329,-359.74 310.209,-324.65 303.279,-307.308 319,-270.74"/>
<path fill="none" stroke="black" d="M319,-268.74C320.083,-266.183 456.618,-232.246 536.517,-212.583"/>
<polygon fill="black" stroke="black" points="537.568,-215.929 546.443,-210.142 535.896,-209.131 537.568,-215.929"/>
</g>
<!-- CDI&#45;PIO*&#45;&gt;MPI -->
<g id="edge35" class="edge"><title>CDI&#45;PIO*&#45;&gt;MPI</title>
<path fill="none" stroke="black" d="M210.608,-468.396C220.372,-458.323 232.603,-444.861 242,-431.74 252.657,-416.86 252.304,-411.264 262,-395.74 277.218,-371.374 299,-371.468 299,-342.74"/>
<path fill="none" stroke="black" d="M299,-340.74C299,-300.627 287.694,-282.023 314,-251.74 345.453,-215.531 401.514,-203.82 439.937,-200.165"/>
<polygon fill="black" stroke="black" points="440.585,-203.625 450.272,-199.335 440.024,-196.647 440.585,-203.625"/>
</g>
<!-- CDI&#45;PIO*&#45;&gt;YAXT -->
<g id="edge36" class="edge"><title>CDI&#45;PIO*&#45;&gt;YAXT</title>
<path fill="none" stroke="black" d="M217.043,-469.378C231.101,-460.006 249.326,-447.856 265.018,-437.394"/>
<polygon fill="black" stroke="black" points="267.055,-440.244 273.434,-431.784 263.172,-434.419 267.055,-440.244"/>
</g>
<!-- CDI&#45;PIO*&#45;&gt;CDI* -->
<g id="edge37" class="edge"><title>CDI&#45;PIO*&#45;&gt;CDI*</title>
<path fill="none" stroke="black" d="M230.316,-471.901C265.829,-459.346 319.623,-440.328 355.275,-427.724"/>
<polygon fill="black" stroke="black" points="356.558,-430.983 364.819,-424.349 354.225,-424.383 356.558,-430.983"/>
</g>
<!-- SERIALBOX&#45;&gt;STDC++ -->
<g id="edge38" class="edge"><title>SERIALBOX&#45;&gt;STDC++</title>
<path fill="none" stroke="black" d="M449.622,-473.571C390.372,-460.691 293.4,-439.61 233.045,-426.489"/>
<polygon fill="black" stroke="black" points="233.468,-422.999 222.952,-424.295 231.981,-429.839 233.468,-422.999"/>
</g>
<!-- SERIALBOX&#45;&gt;NetCDF&#45;C -->
<g id="edge39" class="edge"><title>SERIALBOX&#45;&gt;NetCDF&#45;C</title>
<path fill="none" stroke="black" d="M490.765,-467.886C483.461,-453.954 475.362,-433.488 478,-414.74"/>
<path fill="none" stroke="black" d="M478,-412.74C479.221,-404.06 481.305,-401.398 488,-395.74 511.19,-376.141 542.394,-363.366 569.362,-355.28"/>
<polygon fill="black" stroke="black" points="570.426,-358.616 579.083,-352.509 568.507,-351.885 570.426,-358.616"/>
</g>
<!-- LAPACK&#45;&gt;BLAS -->
<g id="edge40" class="edge"><title>LAPACK&#45;&gt;BLAS</title>
<path fill="none" stroke="black" d="M755.213,-395.437C756.646,-387.723 758.368,-378.453 759.965,-369.853"/>
<polygon fill="black" stroke="black" points="763.439,-370.315 761.823,-359.844 756.556,-369.037 763.439,-370.315"/>
</g>
<!-- YAC&#45;&gt;MPI -->
<g id="edge41" class="edge"><title>YAC&#45;&gt;MPI</title>
<path fill="none" stroke="black" d="M588.629,-471.412C585.736,-470.124 582.821,-468.876 580,-467.74 533.458,-448.996 502.281,-472.485 473,-431.74 463.663,-418.747 464.833,-409.498 473,-395.74 490.056,-367.008 520.364,-387.473 539,-359.74 561.201,-326.702 557.835,-309.552 549,-270.74"/>
</g>
<!-- YAC&#45;&gt;YAXT -->
<g id="edge42" class="edge"><title>YAC&#45;&gt;YAXT</title>
<path fill="none" stroke="black" d="M588.802,-470.925C585.875,-469.732 582.905,-468.64 580,-467.74 483.678,-437.916 454.3,-454.197 356,-431.74 349.79,-430.321 343.263,-428.599 336.932,-426.802"/>
<polygon fill="black" stroke="black" points="337.801,-423.41 327.22,-423.95 335.828,-430.126 337.801,-423.41"/>
</g>
<!-- YAC&#45;&gt;MTIME -->
<g id="edge43" class="edge"><title>YAC&#45;&gt;MTIME</title>
<path fill="none" stroke="black" d="M595.483,-467.437C585.131,-458.706 572.414,-447.981 561.161,-438.49"/>
<polygon fill="black" stroke="black" points="563.182,-435.616 553.281,-431.844 558.669,-440.967 563.182,-435.616"/>
</g>
<!-- YAC&#45;&gt;LAPACK -->
<g id="edge44" class="edge"><title>YAC&#45;&gt;LAPACK</title>
<path fill="none" stroke="black" d="M643.195,-470.743C663.906,-460.083 692.632,-445.297 715.367,-433.595"/>
<polygon fill="black" stroke="black" points="717.097,-436.642 724.386,-428.953 713.893,-430.418 717.097,-436.642"/>
</g>
<!-- YAC&#45;&gt;NetCDF&#45;C -->
<g id="edge45" class="edge"><title>YAC&#45;&gt;NetCDF&#45;C</title>
<path fill="none" stroke="black" d="M588.963,-471.731C585.952,-470.354 582.92,-468.999 580,-467.74 533.087,-447.513 470.882,-465.33 478,-414.74"/>
</g>
<!-- XML2 -->
<g id="node25" class="node"><title>XML2</title>
<ellipse fill="#d1e8fc" stroke="black" cx="625" cy="-413.74" rx="38.9931" ry="18"/>
<text text-anchor="middle" x="625" y="-410.04" font-family="italic" font-size="14.00">XML2</text>
</g>
<!-- YAC&#45;&gt;XML2 -->
<g id="edge46" class="edge"><title>YAC&#45;&gt;XML2</title>
<path fill="none" stroke="black" d="M618.225,-467.437C619.217,-459.723 620.408,-450.453 621.514,-441.853"/>
<polygon fill="black" stroke="black" points="624.997,-442.209 622.801,-431.844 618.054,-441.316 624.997,-442.209"/>
</g>
<!-- ICON&#45;TIXI&#45;&gt;XML2 -->
<g id="edge47" class="edge"><title>ICON&#45;TIXI&#45;&gt;XML2</title>
<path fill="none" stroke="black" d="M703.559,-467.616C688.88,-457.736 670.342,-445.259 654.961,-434.906"/>
<polygon fill="black" stroke="black" points="656.573,-431.772 646.322,-429.092 652.664,-437.579 656.573,-431.772"/>
</g>
<!-- ECCODES&#45;&gt;AEC / SZIP -->
<g id="edge48" class="edge"><title>ECCODES&#45;&gt;AEC / SZIP</title>
<path fill="none" stroke="black" d="M361.963,-327.18C336.366,-315.159 308.288,-295.656 319,-270.74"/>
</g>
<!-- HDF5&#45;&gt;MPI -->
<g id="edge49" class="edge"><title>HDF5&#45;&gt;MPI</title>
<path fill="none" stroke="black" d="M592.056,-255.901C569.715,-244.402 536.843,-227.483 512.657,-215.034"/>
<polygon fill="black" stroke="black" points="514.022,-211.801 503.529,-210.336 510.819,-218.024 514.022,-211.801"/>
</g>
<!-- HDF5&#45;&gt;ZLIB -->
<g id="edge50" class="edge"><title>HDF5&#45;&gt;ZLIB</title>
<path fill="none" stroke="black" d="M636.511,-253.895C649.738,-243.83 667.399,-230.393 681.977,-219.301"/>
<polygon fill="black" stroke="black" points="684.308,-221.926 690.147,-213.085 680.069,-216.355 684.308,-221.926"/>
</g>
<!-- HDF5&#45;&gt;AEC / SZIP -->
<g id="edge51" class="edge"><title>HDF5&#45;&gt;AEC / SZIP</title>
<path fill="none" stroke="black" d="M611.19,-251.795C608.489,-243.916 605.211,-234.357 602.187,-225.534"/>
<polygon fill="black" stroke="black" points="605.477,-224.34 598.923,-216.015 598.855,-226.61 605.477,-224.34"/>
</g>
<!-- NetCDF&#45;C&#45;&gt;HDF5 -->
<g id="edge52" class="edge"><title>NetCDF&#45;C&#45;&gt;HDF5</title>
<path fill="none" stroke="black" d="M624.528,-323.437C623.426,-315.723 622.102,-306.453 620.873,-297.853"/>
<polygon fill="black" stroke="black" points="624.323,-297.249 619.443,-287.844 617.393,-298.239 624.323,-297.249"/>
</g>
<!-- NetCDF&#45;C&#45;&gt;ZLIB -->
<g id="edge53" class="edge"><title>NetCDF&#45;C&#45;&gt;ZLIB</title>
<path fill="none" stroke="black" d="M663.095,-327.17C686.457,-315.797 712.017,-297.148 709,-270.74"/>
<path fill="none" stroke="black" d="M709,-268.74C707.394,-254.685 707.249,-238.938 707.568,-225.945"/>
<polygon fill="black" stroke="black" points="711.072,-225.891 707.923,-215.775 704.076,-225.647 711.072,-225.891"/>
</g>
<!-- XML2&#45;&gt;ZLIB -->
<g id="edge54" class="edge"><title>XML2&#45;&gt;ZLIB</title>
<path fill="none" stroke="black" d="M650.393,-400.043C665.822,-390.966 684.509,-377.266 695,-359.74 715.566,-325.383 713.544,-310.523 709,-270.74"/>
</g>
<!-- bottomNode -->
<g id="node26" class="node"><title>bottomNode</title>
<polygon fill="white" stroke="none" points="1021.5,-143.74 36.5,-143.74 36.5,-105.74 1021.5,-105.74 1021.5,-143.74"/>
<text text-anchor="start" x="44.5" y="-128.54" font-family="italic" font-size="14.00">* CDI and CDI&#45;PIO are technically one package. Unfortunately, the bundled version of CDI cannot currently provide CDI&#45;PIO features.</text>
<text text-anchor="middle" x="529" y="-113.54" font-family="italic" font-size="14.00">Therefore, an external version of CDI (with CDI&#45;PIO features enabled) needs to be provided if those features are required.</text>
</g>
<!-- optionalIcon -->
<g id="node30" class="node"><title>optionalIcon</title>
<polygon fill="#79c547" stroke="none" points="637.5,-61.8701 458.5,-61.8701 458.5,-23.8701 637.5,-23.8701 637.5,-61.8701"/>
<text text-anchor="middle" x="548" y="-46.6701" font-family="italic" font-size="14.00">Immediate optional</text>
<text text-anchor="middle" x="548" y="-31.6701" font-family="italic" font-size="14.00">dependencies of ICON</text>
</g>
<!-- bottomNode&#45;&gt;optionalIcon -->
<!-- external -->
<g id="node27" class="node"><title>external</title>
<ellipse fill="white" stroke="black" cx="75" cy="-42.8701" rx="59.2941" ry="26.7407"/>
<text text-anchor="middle" x="75" y="-46.6701" font-family="italic" font-size="14.00">External</text>
<text text-anchor="middle" x="75" y="-31.6701" font-family="italic" font-size="14.00">packages</text>
</g>
<!-- bundled -->
<g id="node28" class="node"><title>bundled</title>
<polygon fill="white" stroke="black" points="243.5,-69.3701 152.5,-69.3701 152.5,-16.3701 243.5,-16.3701 243.5,-69.3701"/>
<text text-anchor="middle" x="198" y="-54.1701" font-family="italic" font-size="14.00">Optionally</text>
<text text-anchor="middle" x="198" y="-39.1701" font-family="italic" font-size="14.00">bundled</text>
<text text-anchor="middle" x="198" y="-24.1701" font-family="italic" font-size="14.00">packages</text>
</g>
<!-- external&#45;&gt;bundled -->
<!-- mandatoryIcon -->
<g id="node29" class="node"><title>mandatoryIcon</title>
<polygon fill="#47a1f1" stroke="none" points="440.5,-61.8701 261.5,-61.8701 261.5,-23.8701 440.5,-23.8701 440.5,-61.8701"/>
<text text-anchor="middle" x="351" y="-46.6701" font-family="italic" font-size="14.00">Immediate mandatory</text>
<text text-anchor="middle" x="351" y="-31.6701" font-family="italic" font-size="14.00">dependencies of ICON</text>
</g>
<!-- bundled&#45;&gt;mandatoryIcon -->
<!-- mandatoryIcon&#45;&gt;optionalIcon -->
<!-- mandatoryBundled -->
<g id="node31" class="node"><title>mandatoryBundled</title>
<polygon fill="#d1e8fc" stroke="none" points="832,-69.3701 656,-69.3701 656,-16.3701 832,-16.3701 832,-69.3701"/>
<text text-anchor="middle" x="744" y="-54.1701" font-family="italic" font-size="14.00">Immediate mandatory</text>
<text text-anchor="middle" x="744" y="-39.1701" font-family="italic" font-size="14.00">dependencies of</text>
<text text-anchor="middle" x="744" y="-24.1701" font-family="italic" font-size="14.00">the bundled packages</text>
</g>
<!-- optionalIcon&#45;&gt;mandatoryBundled -->
<!-- optionalBundled -->
<g id="node32" class="node"><title>optionalBundled</title>
<polygon fill="#def1d1" stroke="none" points="1024,-69.3701 850,-69.3701 850,-16.3701 1024,-16.3701 1024,-69.3701"/>
<text text-anchor="middle" x="937" y="-54.1701" font-family="italic" font-size="14.00">Immediate optional</text>
<text text-anchor="middle" x="937" y="-39.1701" font-family="italic" font-size="14.00">dependencies of</text>
<text text-anchor="middle" x="937" y="-24.1701" font-family="italic" font-size="14.00">the bundled packages</text>
</g>
<!-- mandatoryBundled&#45;&gt;optionalBundled -->
</g>
</svg>
