<?xml version="1.0" encoding="UTF-8" standalone="no"?>
<!DOCTYPE svg PUBLIC "-//W3C//DTD SVG 1.1//EN"
 "http://www.w3.org/Graphics/SVG/1.1/DTD/svg11.dtd">
<!-- Generated by graphviz version 2.38.0 (20140413.2041)
 -->
<!-- Title: ICON Pages: 1 -->
<svg width="1070pt" height="639pt"
 viewBox="0.00 0.00 1069.71 638.69" xmlns="http://www.w3.org/2000/svg" xmlns:xlink="http://www.w3.org/1999/xlink">
<g id="graph0" class="graph" transform="scale(1 1) rotate(0) translate(4 634.693)">
<title>ICON</title>
<polygon fill="white" stroke="none" points="-4,4 -4,-634.693 1065.71,-634.693 1065.71,4 -4,4"/>
<g id="clust1" class="cluster"><title>clusterMain</title>
</g>
<g id="clust20" class="cluster"><title>clusterLegend</title>
<polygon fill="none" stroke="black" points="13,-8 13,-77.7401 1037,-77.7401 1037,-8 13,-8"/>
</g>
<!-- ICON -->
<g id="node1" class="node"><title>ICON</title>
<polygon fill="white" stroke="black" stroke-width="2" points="643.5,-614.693 568.5,-614.693 568.5,-578.693 643.5,-578.693 643.5,-614.693"/>
<text text-anchor="middle" x="606" y="-591.693" font-family="italic" font-size="20.00">ICON</text>
</g>
<!-- STDC++ -->
<g id="node2" class="node"><title>STDC++</title>
<ellipse fill="#79c547" stroke="black" cx="168" cy="-452.693" rx="53.8905" ry="18"/>
<text text-anchor="middle" x="168" y="-448.993" font-family="italic" font-size="14.00">STDC++</text>
</g>
<!-- ICON&#45;&gt;STDC++ -->
<g id="edge1" class="edge"><title>ICON&#45;&gt;STDC++</title>
<path fill="none" stroke="black" d="M568.164,-595.864C467.032,-595.661 193.108,-590.586 119,-542.693 111.638,-537.936 110.912,-534.248 109,-525.693"/>
<path fill="none" stroke="black" d="M109,-523.693C104.659,-504.277 118.671,-487.112 134.125,-474.639"/>
<polygon fill="black" stroke="black" points="136.341,-477.352 142.248,-468.557 132.145,-471.749 136.341,-477.352"/>
</g>
<!-- CUDA -->
<g id="node3" class="node"><title>CUDA</title>
<ellipse fill="#79c547" stroke="black" cx="56" cy="-452.693" rx="40.0939" ry="18"/>
<text text-anchor="middle" x="56" y="-448.993" font-family="italic" font-size="14.00">CUDA</text>
</g>
<!-- ICON&#45;&gt;CUDA -->
<g id="edge2" class="edge"><title>ICON&#45;&gt;CUDA</title>
<path fill="none" stroke="black" d="M568.163,-595.119C445.324,-592.866 63.4893,-582.675 27,-542.693 10.6819,-524.813 23.172,-497.609 36.4702,-477.984"/>
<polygon fill="black" stroke="black" points="39.3407,-479.987 42.3362,-469.825 33.657,-475.901 39.3407,-479.987"/>
</g>
<!-- CUB -->
<g id="node4" class="node"><title>CUB</title>
<polygon fill="#79c547" stroke="black" points="90,-542.693 36,-542.693 36,-506.693 90,-506.693 90,-542.693"/>
<text text-anchor="middle" x="63" y="-520.993" font-family="italic" font-size="14.00">CUB</text>
</g>
<!-- ICON&#45;&gt;CUB -->
<g id="edge3" class="edge"><title>ICON&#45;&gt;CUB</title>
<path fill="none" stroke="black" d="M568.196,-595.387C483.658,-593.908 273.439,-585.8 104,-542.693 102.74,-542.373 101.468,-542.021 100.19,-541.642"/>
<polygon fill="black" stroke="black" points="101.014,-538.226 90.4197,-538.325 98.7635,-544.854 101.014,-538.226"/>
</g>
<!-- MPI -->
<g id="node5" class="node"><title>MPI</title>
<ellipse fill="#79c547" stroke="black" cx="479" cy="-197.74" rx="30.5947" ry="18"/>
<text text-anchor="middle" x="479" y="-194.04" font-family="italic" font-size="14.00">MPI</text>
</g>
<!-- ICON&#45;&gt;MPI -->
<g id="edge4" class="edge"><title>ICON&#45;&gt;MPI</title>
<path fill="none" stroke="black" d="M568.161,-593.82C525.9,-589.962 457.357,-578.232 411,-542.693 396.299,-531.424 399.808,-522.407 390,-506.693 379.817,-490.381 376.212,-486.987 366,-470.693 361.345,-463.266 355.224,-462.425 356,-453.693"/>
</g>
<!-- NetCDF&#45;Fortran -->
<g id="node6" class="node"><title>NetCDF&#45;Fortran</title>
<ellipse fill="#47a1f1" stroke="black" cx="574" cy="-452.693" rx="87.1846" ry="18"/>
<text text-anchor="middle" x="574" y="-448.993" font-family="italic" font-size="14.00">NetCDF&#45;Fortran</text>
</g>
<!-- ICON&#45;&gt;NetCDF&#45;Fortran -->
<g id="edge5" class="edge"><title>ICON&#45;&gt;NetCDF&#45;Fortran</title>
<path fill="none" stroke="black" d="M642.027,-578.508C655.919,-569.858 670.296,-557.93 678,-542.693 685.219,-528.415 686.359,-520.336 678,-506.693 668.218,-490.729 651.951,-479.385 635.153,-471.405"/>
<polygon fill="black" stroke="black" points="636.369,-468.116 625.805,-467.31 633.56,-474.528 636.369,-468.116"/>
</g>
<!-- RTE+RRTMGP -->
<g id="node7" class="node"><title>RTE+RRTMGP</title>
<polygon fill="#79c547" stroke="black" points="381.5,-542.693 256.5,-542.693 256.5,-506.693 381.5,-506.693 381.5,-542.693"/>
<text text-anchor="middle" x="319" y="-520.993" font-family="italic" font-size="14.00">RTE+RRTMGP</text>
</g>
<!-- ICON&#45;&gt;RTE+RRTMGP -->
<g id="edge6" class="edge"><title>ICON&#45;&gt;RTE+RRTMGP</title>
<path fill="none" stroke="black" d="M568.48,-586.542C523.759,-575.635 448.01,-557.159 391.686,-543.422"/>
<polygon fill="black" stroke="black" points="392.306,-539.97 381.762,-541.001 390.647,-546.771 392.306,-539.97"/>
</g>
<!-- ECRAD -->
<g id="node8" class="node"><title>ECRAD</title>
<polygon fill="#79c547" stroke="black" points="669.5,-542.693 598.5,-542.693 598.5,-506.693 669.5,-506.693 669.5,-542.693"/>
<text text-anchor="middle" x="634" y="-520.993" font-family="italic" font-size="14.00">ECRAD</text>
</g>
<!-- ICON&#45;&gt;ECRAD -->
<g id="edge7" class="edge"><title>ICON&#45;&gt;ECRAD</title>
<path fill="none" stroke="black" d="M612.921,-578.39C616.075,-570.507 619.878,-560.998 623.381,-552.24"/>
<polygon fill="black" stroke="black" points="626.694,-553.382 627.158,-542.798 620.195,-550.783 626.694,-553.382"/>
</g>
<!-- RTTOV -->
<g id="node9" class="node"><title>RTTOV</title>
<ellipse fill="#79c547" stroke="black" cx="753" cy="-524.693" rx="44.6926" ry="18"/>
<text text-anchor="middle" x="753" y="-520.993" font-family="italic" font-size="14.00">RTTOV</text>
</g>
<!-- ICON&#45;&gt;RTTOV -->
<g id="edge8" class="edge"><title>ICON&#45;&gt;RTTOV</title>
<path fill="none" stroke="black" d="M641.96,-578.57C664.421,-567.874 693.275,-554.134 715.94,-543.341"/>
<polygon fill="black" stroke="black" points="717.715,-546.373 725.238,-538.913 714.705,-540.053 717.715,-546.373"/>
</g>
<!-- SCT -->
<g id="node10" class="node"><title>SCT</title>
<polygon fill="#79c547" stroke="black" points="543,-379.217 489,-379.217 489,-343.217 543,-343.217 543,-379.217"/>
<text text-anchor="middle" x="516" y="-357.517" font-family="italic" font-size="14.00">SCT</text>
</g>
<!-- ICON&#45;&gt;SCT -->
<g id="edge9" class="edge"><title>ICON&#45;&gt;SCT</title>
<path fill="none" stroke="black" d="M468,-451.693C460.985,-439.952 480.11,-409.569 496.264,-387.458"/>
<polygon fill="black" stroke="black" points="499.069,-389.551 502.248,-379.445 493.46,-385.362 499.069,-389.551"/>
</g>
<!-- YAXT -->
<g id="node11" class="node"><title>YAXT</title>
<polygon fill="#79c547" stroke="black" points="296,-470.693 240,-470.693 240,-434.693 296,-434.693 296,-470.693"/>
<text text-anchor="middle" x="268" y="-448.993" font-family="italic" font-size="14.00">YAXT</text>
</g>
<!-- ICON&#45;&gt;YAXT -->
<g id="edge10" class="edge"><title>ICON&#45;&gt;YAXT</title>
<path fill="none" stroke="black" d="M109,-523.693C98.1272,-475.059 85.3083,-525.309 230.101,-470.785"/>
<polygon fill="black" stroke="black" points="231.784,-473.889 239.868,-467.04 229.277,-467.353 231.784,-473.889"/>
</g>
<!-- CDI* -->
<g id="node12" class="node"><title>CDI*</title>
<polygon fill="#47a1f1" stroke="black" points="429,-470.693 375,-470.693 375,-434.693 429,-434.693 429,-470.693"/>
<text text-anchor="middle" x="402" y="-448.993" font-family="italic" font-size="14.00">CDI*</text>
</g>
<!-- ICON&#45;&gt;CDI* -->
<g id="edge11" class="edge"><title>ICON&#45;&gt;CDI*</title>
<path fill="none" stroke="black" d="M600.916,-578.474C595.328,-560.451 586.19,-533.68 579,-525.693"/>
<path fill="none" stroke="black" d="M579,-523.693C573.135,-517.179 575.853,-512.159 569,-506.693 558.636,-498.429 484.956,-476.845 438.991,-463.913"/>
<polygon fill="black" stroke="black" points="439.651,-460.464 429.077,-461.137 437.763,-467.204 439.651,-460.464"/>
</g>
<!-- CDI&#45;PIO* -->
<g id="node13" class="node"><title>CDI&#45;PIO*</title>
<ellipse fill="#79c547" stroke="black" cx="183" cy="-524.693" rx="55.4913" ry="18"/>
<text text-anchor="middle" x="183" y="-520.993" font-family="italic" font-size="14.00">CDI&#45;PIO*</text>
</g>
<!-- ICON&#45;&gt;CDI&#45;PIO* -->
<g id="edge12" class="edge"><title>ICON&#45;&gt;CDI&#45;PIO*</title>
<path fill="none" stroke="black" d="M568.285,-591.549C502.611,-584.015 363.163,-566.616 247,-542.693 242.387,-541.743 237.611,-540.662 232.843,-539.516"/>
<polygon fill="black" stroke="black" points="233.671,-536.115 223.121,-537.093 231.978,-542.907 233.671,-536.115"/>
</g>
<!-- SERIALBOX -->
<g id="node14" class="node"><title>SERIALBOX</title>
<ellipse fill="#79c547" stroke="black" cx="490" cy="-524.693" rx="69.5877" ry="18"/>
<text text-anchor="middle" x="490" y="-520.993" font-family="italic" font-size="14.00">SERIALBOX</text>
</g>
<!-- ICON&#45;&gt;SERIALBOX -->
<g id="edge13" class="edge"><title>ICON&#45;&gt;SERIALBOX</title>
<path fill="none" stroke="black" d="M577.623,-578.57C561.777,-569.007 541.898,-557.011 525.082,-546.864"/>
<polygon fill="black" stroke="black" points="526.471,-543.614 516.1,-541.444 522.854,-549.607 526.471,-543.614"/>
</g>
<!-- MTIME -->
<g id="node15" class="node"><title>MTIME</title>
<polygon fill="#47a1f1" stroke="black" points="928.5,-470.693 857.5,-470.693 857.5,-434.693 928.5,-434.693 928.5,-470.693"/>
<text text-anchor="middle" x="893" y="-448.993" font-family="italic" font-size="14.00">MTIME</text>
</g>
<!-- ICON&#45;&gt;MTIME -->
<g id="edge14" class="edge"><title>ICON&#45;&gt;MTIME</title>
<path fill="none" stroke="black" d="M643.577,-594.645C715.165,-591.77 866.854,-581.176 899,-542.693 913.204,-525.69 909.658,-499.896 903.766,-480.447"/>
<polygon fill="black" stroke="black" points="907.069,-479.288 900.552,-470.935 900.437,-481.529 907.069,-479.288"/>
</g>
<!-- BLAS -->
<g id="node16" class="node"><title>BLAS</title>
<ellipse fill="#47a1f1" stroke="black" cx="759" cy="-361.217" rx="37.0935" ry="18"/>
<text text-anchor="middle" x="759" y="-357.517" font-family="italic" font-size="14.00">BLAS</text>
</g>
<!-- ICON&#45;&gt;BLAS -->
<g id="edge15" class="edge"><title>ICON&#45;&gt;BLAS</title>
<path fill="none" stroke="black" d="M817,-523.693C829.209,-495.075 822.62,-484.463 818,-453.693"/>
<path fill="none" stroke="black" d="M818,-451.693C814.154,-426.076 797.042,-401.859 782.23,-385.096"/>
<polygon fill="black" stroke="black" points="784.566,-382.466 775.212,-377.492 779.422,-387.214 784.566,-382.466"/>
</g>
<!-- LAPACK -->
<g id="node17" class="node"><title>LAPACK</title>
<ellipse fill="#47a1f1" stroke="black" cx="749" cy="-452.693" rx="50.0912" ry="18"/>
<text text-anchor="middle" x="749" y="-448.993" font-family="italic" font-size="14.00">LAPACK</text>
</g>
<!-- ICON&#45;&gt;LAPACK -->
<g id="edge16" class="edge"><title>ICON&#45;&gt;LAPACK</title>
<path fill="none" stroke="black" d="M643.794,-594.191C687.215,-590.692 758.677,-579.31 807,-542.693 813.987,-537.399 813.56,-533.756 817,-525.693"/>
<path fill="none" stroke="black" d="M817,-523.693C825.803,-503.059 807.309,-485.044 787.4,-472.458"/>
<polygon fill="black" stroke="black" points="788.944,-469.305 778.553,-467.237 785.386,-475.334 788.944,-469.305"/>
</g>
<!-- YAC -->
<g id="node18" class="node"><title>YAC</title>
<polygon fill="#79c547" stroke="black" points="890,-542.693 836,-542.693 836,-506.693 890,-506.693 890,-542.693"/>
<text text-anchor="middle" x="863" y="-520.993" font-family="italic" font-size="14.00">YAC</text>
</g>
<!-- ICON&#45;&gt;YAC -->
<g id="edge17" class="edge"><title>ICON&#45;&gt;YAC</title>
<path fill="none" stroke="black" d="M643.561,-588.295C687.038,-579.315 760.543,-562.844 822,-542.693 823.419,-542.228 824.857,-541.736 826.305,-541.224"/>
<polygon fill="black" stroke="black" points="827.747,-544.421 835.871,-537.621 825.279,-537.87 827.747,-544.421"/>
</g>
<!-- ICON&#45;TIXI -->
<g id="node19" class="node"><title>ICON&#45;TIXI</title>
<polygon fill="#79c547" stroke="black" points="1023.5,-542.693 928.5,-542.693 928.5,-506.693 1023.5,-506.693 1023.5,-542.693"/>
<text text-anchor="middle" x="976" y="-520.993" font-family="italic" font-size="14.00">ICON&#45;TIXI</text>
</g>
<!-- ICON&#45;&gt;ICON&#45;TIXI -->
<g id="edge18" class="edge"><title>ICON&#45;&gt;ICON&#45;TIXI</title>
<path fill="none" stroke="black" d="M643.686,-590.416C701.969,-581.982 817.344,-564.207 914,-542.693 915.464,-542.368 916.945,-542.029 918.437,-541.68"/>
<polygon fill="black" stroke="black" points="919.505,-545.022 928.389,-539.25 917.844,-538.222 919.505,-545.022"/>
</g>
<!-- ECCODES\n/\nGRIB&#45;API -->
<g id="node20" class="node"><title>ECCODES\n/\nGRIB&#45;API</title>
<ellipse fill="#79c547" stroke="black" cx="405" cy="-361.217" rx="65.5227" ry="37.4533"/>
<text text-anchor="middle" x="405" y="-372.517" font-family="italic" font-size="14.00">ECCODES</text>
<text text-anchor="middle" x="405" y="-357.517" font-family="italic" font-size="14.00">/</text>
<text text-anchor="middle" x="405" y="-342.517" font-family="italic" font-size="14.00">GRIB&#45;API</text>
</g>
<!-- ICON&#45;&gt;ECCODES\n/\nGRIB&#45;API -->
<g id="edge19" class="edge"><title>ICON&#45;&gt;ECCODES\n/\nGRIB&#45;API</title>
<path fill="none" stroke="black" d="M579,-523.693C573.135,-517.179 575.66,-512.393 569,-506.693 535.956,-478.412 511.044,-498.975 478,-470.693 471.34,-464.994 472.496,-461.218 468,-453.693"/>
<path fill="none" stroke="black" d="M468,-451.693C458.469,-435.743 447.025,-418.92 436.521,-404.219"/>
<polygon fill="black" stroke="black" points="439.157,-401.891 430.467,-395.832 433.482,-405.988 439.157,-401.891"/>
</g>
<!-- HDF5 -->
<g id="node21" class="node"><title>HDF5</title>
<ellipse fill="#79c547" stroke="black" cx="620" cy="-269.74" rx="38.1938" ry="18"/>
<text text-anchor="middle" x="620" y="-266.04" font-family="italic" font-size="14.00">HDF5</text>
</g>
<!-- ICON&#45;&gt;HDF5 -->
<g id="edge20" class="edge"><title>ICON&#45;&gt;HDF5</title>
<path fill="none" stroke="black" d="M818,-451.693C809.513,-395.166 841.672,-367.587 805,-323.74 771.931,-284.201 711.53,-273.07 668.751,-270.466"/>
<polygon fill="black" stroke="black" points="668.708,-266.96 658.554,-269.985 668.378,-273.952 668.708,-266.96"/>
</g>
<!-- ZLIB -->
<g id="node22" class="node"><title>ZLIB</title>
<ellipse fill="#79c547" stroke="black" cx="707" cy="-197.74" rx="34.394" ry="18"/>
<text text-anchor="middle" x="707" y="-194.04" font-family="italic" font-size="14.00">ZLIB</text>
</g>
<!-- ICON&#45;&gt;ZLIB -->
<g id="edge21" class="edge"><title>ICON&#45;&gt;ZLIB</title>
<path fill="none" stroke="black" d="M643.682,-593.737C743.08,-588.202 1006.58,-570.978 1033,-542.693 1087.84,-483.986 1047.59,-442.42 1043,-362.217"/>
</g>
<!-- CUB&#45;&gt;STDC++ -->
<g id="edge22" class="edge"><title>CUB&#45;&gt;STDC++</title>
<path fill="none" stroke="black" d="M88.6859,-506.57C102.998,-497.028 120.944,-485.064 136.145,-474.93"/>
<polygon fill="black" stroke="black" points="138.35,-477.667 144.729,-469.208 134.467,-471.843 138.35,-477.667"/>
</g>
<!-- CUB&#45;&gt;CUDA -->
<g id="edge23" class="edge"><title>CUB&#45;&gt;CUDA</title>
<path fill="none" stroke="black" d="M61.2697,-506.39C60.4983,-498.676 59.5712,-489.406 58.7112,-480.806"/>
<polygon fill="black" stroke="black" points="62.1882,-480.4 57.7104,-470.798 55.2229,-481.096 62.1882,-480.4"/>
</g>
<!-- NetCDF&#45;C -->
<g id="node23" class="node"><title>NetCDF&#45;C</title>
<ellipse fill="#d1e8fc" stroke="black" cx="620" cy="-361.217" rx="59.2899" ry="18"/>
<text text-anchor="middle" x="620" y="-357.517" font-family="italic" font-size="14.00">NetCDF&#45;C</text>
</g>
<!-- NetCDF&#45;Fortran&#45;&gt;NetCDF&#45;C -->
<g id="edge24" class="edge"><title>NetCDF&#45;Fortran&#45;&gt;NetCDF&#45;C</title>
<path fill="none" stroke="black" d="M582.869,-434.441C589.594,-421.361 598.95,-403.162 606.588,-388.305"/>
<polygon fill="black" stroke="black" points="609.854,-389.606 611.314,-379.112 603.629,-386.406 609.854,-389.606"/>
</g>
<!-- ECRAD&#45;&gt;NetCDF&#45;Fortran -->
<g id="edge25" class="edge"><title>ECRAD&#45;&gt;NetCDF&#45;Fortran</title>
<path fill="none" stroke="black" d="M619.169,-506.39C611.975,-497.998 603.203,-487.764 595.31,-478.555"/>
<polygon fill="black" stroke="black" points="597.826,-476.113 588.661,-470.798 592.511,-480.668 597.826,-476.113"/>
</g>
<!-- RTTOV&#45;&gt;NetCDF&#45;Fortran -->
<g id="edge26" class="edge"><title>RTTOV&#45;&gt;NetCDF&#45;Fortran</title>
<path fill="none" stroke="black" d="M721.821,-511.5C694.407,-500.78 654.062,-485.003 622.445,-472.638"/>
<polygon fill="black" stroke="black" points="623.525,-469.303 612.937,-468.92 620.975,-475.822 623.525,-469.303"/>
</g>
<!-- RTTOV&#45;&gt;LAPACK -->
<g id="edge27" class="edge"><title>RTTOV&#45;&gt;LAPACK</title>
<path fill="none" stroke="black" d="M752.011,-506.39C751.57,-498.676 751.041,-489.406 750.549,-480.806"/>
<polygon fill="black" stroke="black" points="754.042,-480.582 749.977,-470.798 747.054,-480.981 754.042,-480.582"/>
</g>
<!-- RTTOV&#45;&gt;HDF5 -->
<g id="edge28" class="edge"><title>RTTOV&#45;&gt;HDF5</title>
<path fill="none" stroke="black" d="M727.698,-509.806C713.831,-500.683 697.895,-487.356 690,-470.693 662.031,-411.666 717.067,-382.235 688,-323.74 680.802,-309.255 667.565,-297.555 654.669,-288.87"/>
<polygon fill="black" stroke="black" points="656.203,-285.7 645.874,-283.342 652.477,-291.627 656.203,-285.7"/>
</g>
<!-- SCT&#45;&gt;MPI -->
<g id="edge29" class="edge"><title>SCT&#45;&gt;MPI</title>
<path fill="none" stroke="black" d="M502.928,-343.14C496.711,-336.13 488.729,-328.547 480,-323.74 406.949,-283.51 286.7,-353.069 300,-270.74"/>
</g>
<!-- SCT&#45;&gt;HDF5 -->
<g id="edge30" class="edge"><title>SCT&#45;&gt;HDF5</title>
<path fill="none" stroke="black" d="M532.047,-343.046C538.127,-336.788 545.219,-329.772 552,-323.74 564.63,-312.505 579.351,-300.868 591.859,-291.37"/>
<polygon fill="black" stroke="black" points="594.221,-293.973 600.113,-285.167 590.016,-288.377 594.221,-293.973"/>
</g>
<!-- YAXT&#45;&gt;MPI -->
<g id="edge31" class="edge"><title>YAXT&#45;&gt;MPI</title>
<path fill="none" stroke="black" d="M278.851,-434.495C288.79,-416.924 301.72,-388.557 300,-362.217"/>
<path fill="none" stroke="black" d="M300,-360.217C297.408,-320.534 293.658,-309.999 300,-270.74"/>
<path fill="none" stroke="black" d="M300,-268.74C309.241,-211.538 388.305,-199.73 438.216,-198.053"/>
<polygon fill="black" stroke="black" points="438.466,-201.548 448.389,-197.836 438.316,-194.55 438.466,-201.548"/>
</g>
<!-- CDI*&#45;&gt;ECCODES\n/\nGRIB&#45;API -->
<g id="edge32" class="edge"><title>CDI*&#45;&gt;ECCODES\n/\nGRIB&#45;API</title>
<path fill="none" stroke="black" d="M402.578,-434.441C402.823,-427.136 403.122,-418.234 403.424,-409.209"/>
<polygon fill="black" stroke="black" points="406.928,-409.158 403.765,-399.046 399.932,-408.923 406.928,-409.158"/>
</g>
<!-- CDI*&#45;&gt;NetCDF&#45;C -->
<g id="edge33" class="edge"><title>CDI*&#45;&gt;NetCDF&#45;C</title>
<path fill="none" stroke="black" d="M429.236,-440.071C433.808,-438.214 438.522,-436.359 443,-434.693 490.819,-416.911 505.123,-418.827 552,-398.693 563.044,-393.95 574.699,-388.051 585.18,-382.389"/>
<polygon fill="black" stroke="black" points="586.972,-385.399 594.044,-377.51 583.596,-379.266 586.972,-385.399"/>
</g>
<!-- AEC / SZIP -->
<g id="node24" class="node"><title>AEC / SZIP</title>
<ellipse fill="#def1d1" stroke="black" cx="591" cy="-197.74" rx="63.8893" ry="18"/>
<text text-anchor="middle" x="591" y="-194.04" font-family="italic" font-size="14.00">AEC / SZIP</text>
</g>
<!-- CDI*&#45;&gt;AEC / SZIP -->
<g id="edge34" class="edge"><title>CDI*&#45;&gt;AEC / SZIP</title>
<path fill="none" stroke="black" d="M374.691,-439.041C358.782,-430.135 339.95,-416.603 330,-398.693 302.297,-348.831 295.802,-322.395 320,-270.74"/>
<path fill="none" stroke="black" d="M320,-268.74C322.342,-263.799 455.441,-231.182 534.212,-212.264"/>
<polygon fill="black" stroke="black" points="535.098,-215.65 544.006,-209.915 533.465,-208.843 535.098,-215.65"/>
</g>
<!-- CDI&#45;PIO*&#45;&gt;MPI -->
<g id="edge35" class="edge"><title>CDI&#45;PIO*&#45;&gt;MPI</title>
<path fill="none" stroke="black" d="M221.894,-511.889C272.515,-495.97 354.731,-467.974 356,-453.693"/>
<path fill="none" stroke="black" d="M356,-451.693C358.894,-419.132 319.254,-428.112 305,-398.693 297.865,-383.968 301.066,-378.545 300,-362.217"/>
</g>
<!-- CDI&#45;PIO*&#45;&gt;YAXT -->
<g id="edge36" class="edge"><title>CDI&#45;PIO*&#45;&gt;YAXT</title>
<path fill="none" stroke="black" d="M202.288,-507.809C213.297,-498.743 227.304,-487.208 239.555,-477.118"/>
<polygon fill="black" stroke="black" points="241.809,-479.797 247.303,-470.738 237.359,-474.393 241.809,-479.797"/>
</g>
<!-- CDI&#45;PIO*&#45;&gt;CDI* -->
<g id="edge37" class="edge"><title>CDI&#45;PIO*&#45;&gt;CDI*</title>
<path fill="none" stroke="black" d="M224.395,-512.68C260.723,-502.704 314.815,-487.094 361,-470.693 362.407,-470.194 363.836,-469.672 365.275,-469.135"/>
<polygon fill="black" stroke="black" points="366.754,-472.316 374.806,-465.431 364.217,-465.792 366.754,-472.316"/>
</g>
<!-- SERIALBOX&#45;&gt;STDC++ -->
<g id="edge38" class="edge"><title>SERIALBOX&#45;&gt;STDC++</title>
<path fill="none" stroke="black" d="M435.215,-513.501C382.644,-503.48 301.116,-487.311 231,-470.693 226.666,-469.666 222.178,-468.554 217.685,-467.406"/>
<polygon fill="black" stroke="black" points="218.458,-463.991 207.899,-464.858 216.694,-470.765 218.458,-463.991"/>
</g>
<!-- SERIALBOX&#45;&gt;NetCDF&#45;C -->
<g id="edge39" class="edge"><title>SERIALBOX&#45;&gt;NetCDF&#45;C</title>
<path fill="none" stroke="black" d="M477.013,-507.009C464.009,-488.113 447.926,-457.052 463,-434.693 486.853,-399.314 513.366,-416.805 552,-398.693 562.587,-393.73 573.86,-387.911 584.119,-382.397"/>
<polygon fill="black" stroke="black" points="586.097,-385.306 593.208,-377.452 582.751,-379.157 586.097,-385.306"/>
</g>
<!-- LAPACK&#45;&gt;BLAS -->
<g id="edge40" class="edge"><title>LAPACK&#45;&gt;BLAS</title>
<path fill="none" stroke="black" d="M750.928,-434.441C752.353,-421.692 754.321,-404.079 755.958,-389.439"/>
<polygon fill="black" stroke="black" points="759.445,-389.743 757.078,-379.416 752.489,-388.965 759.445,-389.743"/>
</g>
<!-- YAC&#45;&gt;MPI -->
<g id="edge41" class="edge"><title>YAC&#45;&gt;MPI</title>
<path fill="none" stroke="black" d="M838,-451.693C805.377,-404.354 853.238,-369.925 819,-323.74 734.359,-209.563 652.73,-260.997 518,-215.74 515.895,-215.033 513.747,-214.258 511.594,-213.44"/>
<polygon fill="black" stroke="black" points="512.834,-210.166 502.251,-209.661 510.21,-216.655 512.834,-210.166"/>
</g>
<!-- YAC&#45;&gt;MTIME -->
<g id="edge42" class="edge"><title>YAC&#45;&gt;MTIME</title>
<path fill="none" stroke="black" d="M870.416,-506.39C873.794,-498.507 877.87,-488.998 881.623,-480.24"/>
<polygon fill="black" stroke="black" points="884.947,-481.368 885.67,-470.798 878.513,-478.61 884.947,-481.368"/>
</g>
<!-- YAC&#45;&gt;LAPACK -->
<g id="edge43" class="edge"><title>YAC&#45;&gt;LAPACK</title>
<path fill="none" stroke="black" d="M835.984,-507.104C819.724,-497.12 798.913,-484.342 781.724,-473.787"/>
<polygon fill="black" stroke="black" points="783.462,-470.747 773.109,-468.497 779.799,-476.712 783.462,-470.747"/>
</g>
<!-- YAC&#45;&gt;NetCDF&#45;C -->
<g id="edge44" class="edge"><title>YAC&#45;&gt;NetCDF&#45;C</title>
<path fill="none" stroke="black" d="M859.485,-506.419C855.857,-491.494 849.13,-469.845 838,-453.693"/>
<path fill="none" stroke="black" d="M838,-451.693C803.759,-402.006 769.787,-419.103 713,-398.693 696.646,-392.815 678.846,-385.95 663.237,-379.772"/>
<polygon fill="black" stroke="black" points="664.42,-376.475 653.835,-376.028 661.831,-382.979 664.42,-376.475"/>
</g>
<!-- XML2 -->
<g id="node25" class="node"><title>XML2</title>
<ellipse fill="#d1e8fc" stroke="black" cx="985" cy="-452.693" rx="38.9931" ry="18"/>
<text text-anchor="middle" x="985" y="-448.993" font-family="italic" font-size="14.00">XML2</text>
</g>
<!-- YAC&#45;&gt;XML2 -->
<g id="edge45" class="edge"><title>YAC&#45;&gt;XML2</title>
<path fill="none" stroke="black" d="M890.076,-508.158C908.499,-497.588 932.975,-483.544 952.459,-472.365"/>
<polygon fill="black" stroke="black" points="954.364,-475.306 961.296,-467.294 950.881,-469.235 954.364,-475.306"/>
</g>
<!-- ICON&#45;TIXI&#45;&gt;XML2 -->
<g id="edge46" class="edge"><title>ICON&#45;TIXI&#45;&gt;XML2</title>
<path fill="none" stroke="black" d="M978.225,-506.39C979.217,-498.676 980.408,-489.406 981.514,-480.806"/>
<polygon fill="black" stroke="black" points="984.997,-481.162 982.801,-470.798 978.054,-480.27 984.997,-481.162"/>
</g>
<!-- ECCODES\n/\nGRIB&#45;API&#45;&gt;AEC / SZIP -->
<g id="edge47" class="edge"><title>ECCODES\n/\nGRIB&#45;API&#45;&gt;AEC / SZIP</title>
<path fill="none" stroke="black" d="M356.332,-335.786C331.151,-319.514 307.957,-296.449 320,-270.74"/>
</g>
<!-- HDF5&#45;&gt;MPI -->
<g id="edge48" class="edge"><title>HDF5&#45;&gt;MPI</title>
<path fill="none" stroke="black" d="M594.466,-256.064C570.962,-244.395 536.015,-227.045 510.727,-214.491"/>
<polygon fill="black" stroke="black" points="512.066,-211.248 501.553,-209.936 508.953,-217.518 512.066,-211.248"/>
</g>
<!-- HDF5&#45;&gt;ZLIB -->
<g id="edge49" class="edge"><title>HDF5&#45;&gt;ZLIB</title>
<path fill="none" stroke="black" d="M638.45,-253.895C650.76,-243.991 667.128,-230.821 680.783,-219.834"/>
<polygon fill="black" stroke="black" points="683.277,-222.32 688.874,-213.324 678.889,-216.866 683.277,-222.32"/>
</g>
<!-- HDF5&#45;&gt;AEC / SZIP -->
<g id="edge50" class="edge"><title>HDF5&#45;&gt;AEC / SZIP</title>
<path fill="none" stroke="black" d="M612.98,-251.795C609.716,-243.916 605.755,-234.357 602.1,-225.534"/>
<polygon fill="black" stroke="black" points="605.218,-223.914 598.157,-216.015 598.751,-226.594 605.218,-223.914"/>
</g>
<!-- NetCDF&#45;C&#45;&gt;HDF5 -->
<g id="edge51" class="edge"><title>NetCDF&#45;C&#45;&gt;HDF5</title>
<path fill="none" stroke="black" d="M620,-342.965C620,-330.215 620,-312.603 620,-297.962"/>
<polygon fill="black" stroke="black" points="623.5,-297.939 620,-287.939 616.5,-297.939 623.5,-297.939"/>
</g>
<!-- NetCDF&#45;C&#45;&gt;ZLIB -->
<g id="edge52" class="edge"><title>NetCDF&#45;C&#45;&gt;ZLIB</title>
<path fill="none" stroke="black" d="M631.966,-343.389C641.951,-328.982 656.238,-307.494 667,-287.74 678.215,-267.156 688.992,-242.821 696.529,-224.805"/>
<polygon fill="black" stroke="black" points="699.785,-226.088 700.365,-215.509 693.315,-223.418 699.785,-226.088"/>
</g>
<!-- XML2&#45;&gt;ZLIB -->
<g id="edge53" class="edge"><title>XML2&#45;&gt;ZLIB</title>
<path fill="none" stroke="black" d="M1001.15,-436.041C1016.68,-419.467 1038.44,-391.671 1043,-362.217"/>
<path fill="none" stroke="black" d="M1043,-360.217C1062.74,-232.605 847.616,-205.823 751.731,-200.217"/>
<polygon fill="black" stroke="black" points="751.64,-196.707 741.468,-199.672 751.269,-203.698 751.64,-196.707"/>
</g>
<!-- bottomNode -->
<g id="node26" class="node"><title>bottomNode</title>
<polygon fill="white" stroke="none" points="1026.5,-143.74 41.5,-143.74 41.5,-105.74 1026.5,-105.74 1026.5,-143.74"/>
<text text-anchor="start" x="49.5" y="-128.54" font-family="italic" font-size="14.00">* CDI and CDI&#45;PIO are technically one package. Unfortunately, the bundled version of CDI cannot currently provide CDI&#45;PIO features.</text>
<text text-anchor="middle" x="534" y="-113.54" font-family="italic" font-size="14.00">Therefore, an external version of CDI (with CDI&#45;PIO features enabled) needs to be provided if those features are required.</text>
</g>
<!-- optionalIcon -->
<g id="node30" class="node"><title>optionalIcon</title>
<polygon fill="#79c547" stroke="none" points="642.5,-61.8701 463.5,-61.8701 463.5,-23.8701 642.5,-23.8701 642.5,-61.8701"/>
<text text-anchor="middle" x="553" y="-46.6701" font-family="italic" font-size="14.00">Immediate optional</text>
<text text-anchor="middle" x="553" y="-31.6701" font-family="italic" font-size="14.00">dependencies of ICON</text>
</g>
<!-- bottomNode&#45;&gt;optionalIcon -->
<!-- external -->
<g id="node27" class="node"><title>external</title>
<ellipse fill="white" stroke="black" cx="80" cy="-42.8701" rx="59.2941" ry="26.7407"/>
<text text-anchor="middle" x="80" y="-46.6701" font-family="italic" font-size="14.00">External</text>
<text text-anchor="middle" x="80" y="-31.6701" font-family="italic" font-size="14.00">packages</text>
</g>
<!-- bundled -->
<g id="node28" class="node"><title>bundled</title>
<polygon fill="white" stroke="black" points="248.5,-69.3701 157.5,-69.3701 157.5,-16.3701 248.5,-16.3701 248.5,-69.3701"/>
<text text-anchor="middle" x="203" y="-54.1701" font-family="italic" font-size="14.00">Optionally</text>
<text text-anchor="middle" x="203" y="-39.1701" font-family="italic" font-size="14.00">bundled</text>
<text text-anchor="middle" x="203" y="-24.1701" font-family="italic" font-size="14.00">packages</text>
</g>
<!-- external&#45;&gt;bundled -->
<!-- mandatoryIcon -->
<g id="node29" class="node"><title>mandatoryIcon</title>
<polygon fill="#47a1f1" stroke="none" points="445.5,-61.8701 266.5,-61.8701 266.5,-23.8701 445.5,-23.8701 445.5,-61.8701"/>
<text text-anchor="middle" x="356" y="-46.6701" font-family="italic" font-size="14.00">Immediate mandatory</text>
<text text-anchor="middle" x="356" y="-31.6701" font-family="italic" font-size="14.00">dependencies of ICON</text>
</g>
<!-- bundled&#45;&gt;mandatoryIcon -->
<!-- mandatoryIcon&#45;&gt;optionalIcon -->
<!-- mandatoryBundled -->
<g id="node31" class="node"><title>mandatoryBundled</title>
<polygon fill="#d1e8fc" stroke="none" points="837,-69.3701 661,-69.3701 661,-16.3701 837,-16.3701 837,-69.3701"/>
<text text-anchor="middle" x="749" y="-54.1701" font-family="italic" font-size="14.00">Immediate mandatory</text>
<text text-anchor="middle" x="749" y="-39.1701" font-family="italic" font-size="14.00">dependencies of</text>
<text text-anchor="middle" x="749" y="-24.1701" font-family="italic" font-size="14.00">the bundled packages</text>
</g>
<!-- optionalIcon&#45;&gt;mandatoryBundled -->
<!-- optionalBundled -->
<g id="node32" class="node"><title>optionalBundled</title>
<polygon fill="#def1d1" stroke="none" points="1029,-69.3701 855,-69.3701 855,-16.3701 1029,-16.3701 1029,-69.3701"/>
<text text-anchor="middle" x="942" y="-54.1701" font-family="italic" font-size="14.00">Immediate optional</text>
<text text-anchor="middle" x="942" y="-39.1701" font-family="italic" font-size="14.00">dependencies of</text>
<text text-anchor="middle" x="942" y="-24.1701" font-family="italic" font-size="14.00">the bundled packages</text>
</g>
<!-- mandatoryBundled&#45;&gt;optionalBundled -->
</g>
</svg>
